<?xml version="1.0" encoding="UTF-8" standalone="no"?>
<!-- Created with Inkscape (http://www.inkscape.org/) -->

<svg
   version="1.1"
   id="svg763"
   width="1300.9708"
   height="1228.6522"
   viewBox="0 0 1300.9708 1228.6522"
   sodipodi:docname="DPV_Lilie.png"
   inkscape:export-filename="../d9187b8/DPV_Lilie.png"
   inkscape:export-xdpi="96"
   inkscape:export-ydpi="96"
   xmlns:inkscape="http://www.inkscape.org/namespaces/inkscape"
   xmlns:sodipodi="http://sodipodi.sourceforge.net/DTD/sodipodi-0.dtd"
   xmlns="http://www.w3.org/2000/svg"
   xmlns:svg="http://www.w3.org/2000/svg">
  <defs
     id="defs767" />
  <sodipodi:namedview
     id="namedview765"
     pagecolor="#000000"
     bordercolor="#000000"
     borderopacity="0.25"
     inkscape:showpageshadow="2"
     inkscape:pageopacity="0"
     inkscape:pagecheckerboard="0"
     inkscape:deskcolor="#d1d1d1"
     showgrid="false" />
  <g
     inkscape:groupmode="layer"
     inkscape:label="Image"
     id="g769"
     transform="translate(-0.08328858,-0.95489961)">
    <path
       style="fill:#fefefe"
       d="m 602.39179,1229.0638 c -0.2887,-0.2886 -10.8262,-0.9262 -23.4167,-1.4168 -24.9233,-0.9711 -47.8873,-4.293 -80.8918,-11.7016 C 355.01109,1183.8295 227.52349,1107.1288 136.86579,998.62525 65.440289,913.13965 18.702389,809.6081 3.2241886,702.58878 c -2.183,-15.09366 -3.14090002,-41.77991 -3.14090002,-87.5 0,-68.14216 1.81000002,-89.44265 11.08930042,-130.5 33.1595,-146.7191 122.534001,-277.3507 250.910701,-366.73649 84.2441,-58.657267 185.9492,-98.369097 288.5,-112.6478962 43.2722,-6.02506997 166.7817,-5.54235997 206.5,0.80707 119.6069,19.1205192 225.827,65.2951392 316.69881,137.6711362 114.329,91.05873 192.7056,218.73496 219.708,357.90618 6.5239,33.62478 7.5489,48.93783 7.5638,113 0.015,66.41059 -1.0923,81.90839 -8.5046,119 -21.4223,107.19706 -74.2891,209.10097 -150.5642,290.22142 -36.8586,39.2 -72.6452,69.2522 -117.9019,99.0092 -72.32791,47.5569 -151.22921,79.5994 -237.99991,96.6541 -31.7184,6.2341 -46.5463,7.886 -81.5,9.0793 -32.3425,1.1041 -101.2538,1.4488 -102.1915,0.511 z m 102.1915,-22.935 c 82.5654,-7.4815 152.3331,-26.0547 224.4247,-59.7454 164.58651,-76.9165 285.26241,-217.00855 331.03271,-384.29462 13.9246,-50.89297 19.9954,-95.8212 19.9306,-147.5 -0.035,-28.13361 -0.9759,-42.87867 -4.4517,-69.787 -11.0081,-85.2203 -42.2611,-168.1926 -91.4221,-242.713 C 1145.7641,243.98154 1092.5234,188.58501 1034.6269,146.56575 938.43539,76.753413 828.47569,35.991213 705.08329,24.403513 c -21.9045,-2.05703 -92.475,-1.73659 -114,0.51765 -80.3373,8.41346 -149.6569,27.24627 -219.4944,59.6325 -48.1016,22.306437 -100.3295,55.591697 -138.6675,88.373797 -66.0592,56.48604 -115.1425,118.31176 -151.272401,190.54396 -31.4277,62.83131 -47.9378,118.33048 -57.7468,194.11736 -2.2322,17.24691 -2.6024,94.09392 -0.5347,111 4.2321,34.60248 8.0716,55.68952 15.3854,84.5 40.8761,161.01837 153.316701,299.98482 308.330401,381.06872 78.6644,41.1474 171.318,66.8995 264,73.3761 18.4546,1.2896 72.7708,0.4735 93.5,-1.4048 z m -72.5,-29.3526 c -15.3259,-7.257 -40.1362,-23.0627 -56.362,-35.9059 -12.8017,-10.1329 -40.5884,-38.07 -51.5029,-51.7816 -10.5817,-13.2935 -21.2688,-28.9964 -25.2233,-37.0615 -2.7027,-5.512 -2.9118,-6.7644 -2.9118,-17.4385 0,-13.3765 -0.3473,-12.5648 16.2238,-37.91985 21.5629,-32.993 31.9672,-61.3361 42.2862,-115.1952 l 1.0758,-5.61508 21.7071,-0.6232 c 11.9389,-0.34276 29.8071,-0.74087 39.7071,-0.88469 l 18,-0.26149 0.6256,46.49976 c 0.7065,52.5115 2.2539,76.9365 6.5251,102.99975 2.7476,16.7657 2.7343,16.8011 6.3843,-17 2.852,-26.41005 3.9265,-52.15055 3.947,-94.55205 l 0.018,-37.05206 29.25,-1.21592 c 35.0348,-1.45641 43.7926,-1.49442 47.1845,-0.20482 3.5772,1.36005 6.1725,6.1061 7.5948,13.8886 4.316,23.6161 12.2343,52.3876 18.6311,67.6972 5.3191,12.7301 14.7267,30.7044 24.5677,46.93905 14.1724,23.3805 13.9937,22.909 13.6008,35.8803 -0.3121,10.3058 -0.5823,11.6013 -3.6908,17.7001 -7.7469,15.1991 -26.5837,38.2704 -49.5434,60.6805 -19.4467,18.9814 -31.459,28.5714 -56.0947,44.7834 -26.5792,17.4909 -27.0911,17.7387 -37.5,18.1491 -7.6497,0.3017 -9.1002,0.051 -14.5,-2.5059 z m -237.3551,-142.0854 c -31.2213,-7.9015 -61.5046,-37.82425 -72.0333,-71.17565 -2.3843,-7.5528 -5.1116,-21.7116 -5.1116,-26.5368 0,-3.262 0.144,-3.3896 3.8248,-3.3896 2.1037,0 7.1662,1.144 11.25,2.5421 18.751,6.4195 35.1654,9.0775 45.8409,7.4229 20.2636,-3.1407 40.8966,-14.3763 52.4026,-28.5356 6.7793,-8.3426 11.0655,-16.3748 16.3173,-30.5783 2.5015,-6.7651 5.8285,-15.1241 7.3935,-18.57561 2.4836,-5.47745 3.1933,-6.27546 5.5806,-6.27546 3.4859,0 79.4681,8.88337 81.1403,9.48643 5.3818,1.94089 -10.0912,57.86274 -23.994,86.71844 -20.9805,43.5455 -44.5264,68.22295 -74.256,77.82485 -9.9892,3.2263 -37.4391,3.835 -48.3551,1.0723 z m 466.3551,1.2721 c -1.1,-0.2167 -4.475,-0.888 -7.5,-1.492 -6.9977,-1.3972 -18.1887,-6.5245 -26.9427,-12.3441 -15.4217,-10.2523 -36.5689,-34.95325 -48.0816,-56.16175 -12.3726,-22.7925 -19.0494,-40.4441 -24.4985,-64.7679 -4.7546,-21.2235 -4.6581,-29.4874 0.368,-31.51623 3.1457,-1.26978 69.6881,-11.09214 75.1446,-11.09214 4.4747,0 4.9911,0.56286 8.2571,9 6.5489,16.91757 8.0322,20.57147 8.728,21.49997 0.4121,0.55 1.0215,2.125 1.3542,3.5 0.718,2.9674 11.4649,19.7732 16.1288,25.2219 5.0136,5.8573 15.3688,13.7865 22.0421,16.8782 17.1386,7.9401 40.2748,8.3814 68.6812,1.31 5.3247,-1.3256 11.0622,-2.4101 12.75,-2.4101 h 3.0688 l -0.017,6.75 c -0.041,16.0592 -6.5994,34.766 -18.4926,52.75 -13.7986,20.86525 -41.785,39.09255 -65.2281,42.48255 -6.5852,0.9522 -21.7446,1.1827 -25.762,0.3916 z m -294.5,-178.9427 c -37.0662,-2.64854 -55.9377,-5.03508 -83.4658,-10.55526 -44.7732,-8.97831 -70.5342,-21.7405 -70.5342,-34.94308 0,-3.07889 0.7341,-4.35502 4.5044,-7.83037 16.4521,-15.165 43.9817,-24.49266 88.4956,-29.98426 35.2364,-4.34705 43.5293,-4.61895 140.5,-4.60665 81.4239,0.0103 95.4272,0.23489 112.5,1.80407 58.7626,5.40095 90.2085,13.46585 109.7338,28.1433 10.2939,7.73803 12.4577,12.65434 8.2009,18.63253 -2.7322,3.83697 -13.0021,11.0861 -20.2263,14.27694 -28.5654,12.61701 -84.3498,22.21846 -148.7084,25.59528 -27.4332,1.43939 -118.201,1.09659 -141,-0.5325 z m 137.5,-30.43986 c 65.1159,-1.68706 101.3289,-5.26946 123.2806,-12.19564 l 6.7194,-2.12008 -7.0819,-2.26273 c -19.9829,-6.38476 -56.906,-10.80316 -112.9181,-13.51232 -36.0788,-1.74504 -129.9612,-0.6043 -166.6618,2.02506 -25.0103,1.79182 -53.1414,5.10591 -69.3382,8.16864 -8.199,1.55038 -20.5,5.07008 -20.5,5.86569 0,0.4076 3.2625,1.48733 7.25,2.39941 22.7303,5.1992 69.2713,9.02388 129.75,10.66269 21.175,0.57379 40.525,1.17239 43,1.33024 10.5456,0.67254 30.867,0.56224 66.5,-0.36096 z m -476,-51.57938 c -31.7377,-4.60841 -49.8327,-10.85553 -70,-24.16685 -24.8803,-16.42208 -49.8884,-48.39912 -60.026501,-76.754 -10.0686,-28.16041 -12.9856,-45.40084 -12.942,-76.49133 0.028,-20.11934 0.32,-24.06964 2.7575,-37.33493 4.8962,-26.64612 15.912901,-54.95269 29.448301,-75.66507 18.948,-28.99506 49.8213,-53.70384 82.4336,-65.97407 13.9712,-5.25658 36.6757,-10.80534 49.8291,-12.17772 13.1503,-1.37206 46.755,-0.40449 56.9703,1.64033 7.655,1.53231 23.9517,5.91902 27.5297,7.41034 1.1,0.45849 4.7,1.85909 8,3.11245 16.489,6.26264 41.1928,20.93324 58,34.44386 29.4023,23.63542 58.013,57.98602 79.9959,96.04481 9.0386,15.64854 20.5274,38.68494 26.931,54 3.2196,7.7 6.4183,15.35 7.1084,17 3.7809,9.04057 12.8585,38.16025 16.366,52.5 6.6306,27.10754 11.0949,57.17042 11.0975,74.73095 0,9.49385 1.0782,8.64643 -12.9988,10.22923 -4.675,0.52564 -20.2,2.3642 -34.5,4.08567 -14.3,1.72148 -30.3486,3.37369 -35.6636,3.67159 l -9.6636,0.54163 -1.9657,-3.87953 c -1.0812,-2.13375 -4.5591,-10.40454 -7.7287,-18.37954 -8.8741,-22.32777 -17.3102,-38.42638 -26.2013,-50 -6.6522,-8.65922 -23.0557,-23.63758 -30.7977,-28.12195 -16.7186,-9.68395 -28.3512,-12.57277 -46.1496,-11.4607 -20.3434,1.27108 -37.4403,10.52887 -53.0983,28.75224 -15.5757,18.12742 -20.9884,39.33231 -18.9111,74.08612 0.5508,9.21564 0.7651,16.99214 0.4761,17.28111 -0.6813,0.68133 -32.3697,1.44555 -36.2965,0.87536 z m 797.49991,-2.07493 c 0,-1.05466 0.7239,-7.0745 1.6086,-13.37741 1.8683,-13.31043 1.4255,-32.48754 -0.9993,-43.27441 -1.7477,-7.77473 -6.5941,-18.27382 -12.7211,-27.55848 -9.0986,-13.7877 -25.04301,-26.17974 -40.99391,-31.86037 -6.6423,-2.36558 -8.8686,-2.64012 -21.8942,-2.69996 -12.7791,-0.0587 -15.3308,0.21718 -21.5,2.32452 -16.7773,5.73099 -28.6201,13.29631 -41.087,26.24688 -13.8123,14.34808 -20.3163,25.28797 -31.7253,53.36198 -3.5763,8.8 -8.0934,19.4875 -10.0381,23.75 -3.1887,6.98925 -3.8114,7.74961 -6.3427,7.74605 -2.6934,-0.004 -29.5693,-3.29051 -69.7342,-8.52796 -10.41,-1.35745 -19.2975,-2.46809 -19.75,-2.46809 -1.1222,0 -1.0177,-14.93434 0.2064,-29.5 4.3942,-52.28471 31.4629,-127.19681 69.0284,-191.03467 38.1137,-64.76946 93.1528,-109.53126 153.7885,-125.07196 7.3728,-1.88962 17.5111,-3.86836 22.5295,-4.39719 11.79831,-1.2433 36.55571,-1.23209 48.46081,0.0219 24.6864,2.60033 56.5733,14.42676 80.1636,29.73162 40.2074,26.08566 68.7717,69.83056 79.1734,121.25027 2.124,10.49989 2.3256,14.0655 2.3189,41 -0.01,24.25092 -0.3246,31.10142 -1.7905,38.5 -7.4918,37.81298 -23.4574,69.28352 -47.1879,93.01394 -12.792,12.7921 -24.8748,21.38355 -40.7844,28.99985 -24.1784,11.57474 -37.1122,14.46676 -67.9795,15.20036 -21.9453,0.52155 -22.75,0.47285 -22.75,-1.3769 z m -327.99991,-20.8829 c -9.075,-0.70338 -21.9907,-1.59622 -28.7015,-1.98409 l -12.2015,-0.70522 0.5836,-75.63252 c 0.7628,-98.87337 -0.6211,-145.4662 -7.6078,-256.13252 -1.3722,-21.73486 -3.3465,-110.01314 -2.9241,-130.75098 0.1932,-9.48804 0.085,-17.25054 -0.2412,-17.25 -0.3259,5.4e-4 -0.8746,10.01348 -1.2194,22.25098 -0.3447,12.2375 -1.9836,47.675 -3.6418,78.75 -4.5909,86.03427 -4.9478,100.37871 -6.0813,244.46115 -0.5797,73.67863 -1.1609,134.06807 -1.2916,134.19874 -0.8245,0.82454 -75.8899,3.52359 -76.6572,2.75629 -0.5065,-0.50645 -2.7432,-11.94477 -4.9704,-25.4185 -4.4873,-27.14566 -10.5359,-53.10362 -18.0964,-77.6619 -10.4628,-33.98586 -20.5268,-58.65946 -51.7343,-126.83578 -29.3196,-64.05201 -38.2925,-89.7455 -45.2254,-129.5 -2.7189,-15.59034 -3.7958,-51.36783 -2.1005,-69.78127 4.7239,-51.30845 27.3961,-98.10554 69.2577,-142.95296 19.8693,-21.28656 50.5328,-49.41982 80.2512,-73.62932 15.4074,-12.551267 37.6896,-31.259257 50.3838,-42.301917 5.3553,-4.65853 8.0516,-6.33453 10.1907,-6.33453 3.5447,0 11.6783,6.38785 31.3915,24.65376 21.6591,20.068957 38.6817,34.486227 57.1359,48.391107 23.508,17.71287 34.4965,27.06359 45.9681,39.11683 34.3184,36.05845 61.6662,86.4412 70.9456,130.70277 4.658,22.21853 5.9065,36.49664 5.3019,60.63553 -0.4729,18.88146 -0.984,24.26803 -3.6055,38 -6.6741,34.95961 -18.2859,69.11577 -40.6254,119.5 -40.1488,90.55092 -48.3977,110.67482 -57.8606,141.1545 -8.7411,28.15475 -13.6161,49.89794 -17.5412,78.2374 -1.1958,8.63368 -2.4273,14.2109 -3.2535,14.73468 -1.7964,1.13881 -15.8701,0.87476 -35.8294,-0.67223 z"
       id="path890" />
  </g>
</svg>
