<?xml version="1.0" encoding="UTF-8" standalone="no"?>
<!-- Created with Inkscape (http://www.inkscape.org/) -->

<svg
   width="170.94757mm"
   height="175.31543mm"
   viewBox="0 0 170.94757 175.31543"
   version="1.1"
   id="svg5"
   xml:space="preserve"
   inkscape:export-filename="Jurte_BW.svg"
   inkscape:export-xdpi="100"
   inkscape:export-ydpi="100"
   xmlns:inkscape="http://www.inkscape.org/namespaces/inkscape"
   xmlns:sodipodi="http://sodipodi.sourceforge.net/DTD/sodipodi-0.dtd"
   xmlns="http://www.w3.org/2000/svg"
   xmlns:svg="http://www.w3.org/2000/svg"><sodipodi:namedview
     id="namedview7"
     pagecolor="#ffffff"
     bordercolor="#000000"
     borderopacity="0.25"
     inkscape:showpageshadow="2"
     inkscape:pageopacity="0.0"
     inkscape:pagecheckerboard="0"
     inkscape:deskcolor="#d1d1d1"
     inkscape:document-units="mm"
     showgrid="false" /><defs
     id="defs2" /><g
     inkscape:label="Layer 1"
     inkscape:groupmode="layer"
     id="layer1"
     transform="translate(-15.844079,-41.003138)"><g
       id="g573"
       transform="translate(0.37802592,-26.877033)"><path
         style="fill:#000000;stroke-width:0.125292"
         d="m 128.88393,243.0403 c -0.22175,-0.24112 -0.17864,-0.98428 0.0661,-1.13928 0.18924,-0.11986 0.18411,-0.13356 -0.0513,-0.13714 -0.30176,-0.004 -0.75968,-0.57406 -0.75968,-0.94475 0,-0.13875 0.0535,-0.36091 0.11882,-0.49369 0.1469,-0.29846 -0.75535,-2.69599 -1.72185,-4.57554 -0.35104,-0.68266 -0.81184,-1.76479 -1.02401,-2.40474 -0.53978,-1.62806 -0.4422,-1.53743 -1.27793,-1.18682 -0.99646,0.41805 -3.47673,1.30166 -4.96652,1.76933 -0.68297,0.21439 -1.4129,0.48634 -1.62207,0.60431 -0.51452,0.2902 -2.11796,0.66468 -2.45441,0.57323 -0.1495,-0.0406 -0.39138,-0.27968 -0.53751,-0.53119 -0.23031,-0.39638 -0.26332,-0.62256 -0.24788,-1.69848 0.0388,-2.70677 0.25736,-8.13714 0.39955,-9.92957 0.16069,-2.02574 0.23844,-13.36778 0.0927,-13.52678 -0.0979,-0.10688 -2.16388,1.12378 -3.39548,2.02265 -0.46514,0.33948 -1.23747,0.83977 -1.7163,1.11177 -0.47883,0.27201 -4.56103,3.10015 -9.07157,6.28478 -4.510529,3.18461 -9.958205,6.96567 -12.105944,8.40233 -2.147734,1.43665 -4.209225,2.86596 -4.581092,3.17623 -0.783729,0.65392 -1.575237,1.19012 -2.507939,1.69897 -0.625299,0.34115 -0.681669,0.34995 -1.048041,0.1637 -0.212961,-0.10826 -0.780686,-0.31059 -1.261611,-0.44963 -0.480924,-0.13903 -1.410617,-0.46039 -2.065983,-0.71416 -0.655362,-0.25376 -1.228445,-0.46138 -1.273517,-0.46138 -0.130946,0 -1.112391,2.37829 -1.859549,4.50614 -0.378215,1.07713 -0.78698,2.1648 -0.908367,2.41707 -0.372657,0.77443 -0.916409,2.12957 -1.075252,2.67975 -0.08299,0.28743 -0.346676,0.74209 -0.585981,1.01036 -0.544128,0.60996 -0.997524,0.65654 -1.293394,0.13284 -0.111645,-0.19761 -0.380173,-0.65326 -0.59673,-1.01255 -0.216557,-0.35929 -0.428923,-0.86833 -0.471919,-1.13119 -0.05161,-0.31547 -0.156014,-0.50005 -0.307186,-0.54303 -0.35695,-0.10151 -0.272373,-0.29993 0.255302,-0.599 0.625267,-0.35439 0.69686,-0.34672 0.791144,0.0848 0.101261,0.46345 0.385528,0.8172 0.588589,0.73247 0.08763,-0.0366 0.293231,-0.37066 0.456892,-0.74245 0.882985,-2.00581 1.198464,-2.78924 1.745327,-4.33422 0.33066,-0.93416 0.820054,-2.21503 1.087545,-2.84637 l 0.486352,-1.14791 -0.283595,-0.11723 c -0.155977,-0.0644 -0.762671,-0.274 -1.348207,-0.46559 -0.585531,-0.19158 -1.443091,-0.51374 -1.905678,-0.7159 -0.462591,-0.20215 -1.327694,-0.55759 -1.922453,-0.78988 -0.594754,-0.23228 -1.547666,-0.61957 -2.117576,-0.86065 -0.56991,-0.24107 -1.079321,-0.43833 -1.132027,-0.43833 -0.0527,0 -0.441424,-0.15033 -0.863817,-0.33409 -0.422388,-0.18375 -1.156563,-0.44778 -1.631493,-0.58675 -0.474929,-0.13897 -1.214957,-0.37457 -1.644502,-0.52355 -1.888867,-0.65514 -2.783678,-0.91915 -3.965054,-1.16989 -2.450585,-0.52012 -3.066427,-0.68946 -3.304213,-0.90853 -0.132168,-0.12178 -0.808029,-0.51025 -1.501914,-0.86329 -0.693884,-0.35304 -1.580887,-0.86284 -1.971117,-1.1329 -0.39023,-0.27005 -0.756269,-0.49101 -0.813421,-0.49101 -0.05715,0 -0.33263,-0.15858 -0.612175,-0.35239 -0.279545,-0.19382 -0.794027,-0.51274 -1.143295,-0.70871 l -0.635032,-0.35631 -0.304857,0.52513 c -0.637886,1.09877 -2.680404,5.83766 -2.698347,6.26048 -0.0043,0.10148 -0.192059,0.56669 -0.417227,1.03377 -0.225166,0.46709 -0.494315,1.05502 -0.598103,1.30653 -0.485872,1.17738 -0.837711,1.91645 -1.026253,2.15576 -0.113232,0.14371 -0.241891,0.39059 -0.285909,0.54858 -0.121623,0.43659 -0.516055,0.50986 -0.858958,0.15957 -0.159587,-0.16303 -0.29016,-0.39925 -0.29016,-0.52493 0,-0.12567 -0.127066,-0.3947 -0.282368,-0.59782 -0.38146,-0.49892 -1.039316,-2.03049 -1.039316,-2.41964 0,-0.57091 0.648504,-0.89605 0.796676,-0.39941 0.03752,0.12575 0.190972,0.57769 0.341007,1.00431 l 0.272791,0.77568 0.297617,-0.51437 c 0.163691,-0.2829 0.366649,-0.74954 0.451018,-1.03697 0.08437,-0.28744 0.255781,-0.64503 0.380916,-0.79467 0.125134,-0.14962 0.337389,-0.61997 0.471679,-1.04522 0.380952,-1.20632 2.033536,-5.10268 2.654624,-6.2589 0.308315,-0.57396 0.537924,-1.08341 0.510242,-1.13211 -0.02768,-0.0487 -0.441976,-0.24646 -0.920656,-0.43945 -0.990825,-0.39947 -4.898903,-2.45266 -5.422011,-2.84857 -0.45263,-0.34257 -3.080816,-1.91817 -3.199607,-1.91817 -0.05047,0 -0.36688,-0.20577 -0.703124,-0.45729 -0.336244,-0.2515 -0.646769,-0.45728 -0.690055,-0.45728 -0.04329,0 -0.652866,-0.30198 -1.354619,-0.67105 -2.232789,-1.17434 -2.244087,-1.20013 -2.363361,-5.39538 -0.08716,-3.06568 -0.04451,-4.10646 0.44751,-10.91838 0.07526,-1.04195 0.174002,-2.68817 0.21943,-3.65826 0.102258,-2.18368 0.33498,-5.27426 0.481615,-6.39592 0.06062,-0.46375 0.09139,-0.86366 0.06836,-0.88871 -0.117486,-0.12775 -3.424424,6.27402 -5.011565,9.7017 -2.125679,4.59072 -5.132309,10.28886 -6.182888,11.71774 -0.406103,0.55234 -1.202055,1.93532 -1.76878,3.07332 -0.566727,1.13798 -1.167542,2.20915 -1.335148,2.38037 -0.222518,0.22731 -0.285556,0.3944 -0.233644,0.6193 0.08902,0.3857 -0.138077,0.69658 -0.508855,0.69658 -0.209491,0 -0.304407,-0.0937 -0.364021,-0.3593 -0.04435,-0.19761 -0.207589,-0.52548 -0.362749,-0.72861 -0.155159,-0.20312 -0.282494,-0.46769 -0.282967,-0.58794 -4.53e-4,-0.12023 -0.192532,-0.77115 -0.426802,-1.44647 -0.515899,-1.48718 -0.511571,-1.89105 0.02087,-1.94741 0.337892,-0.0358 0.381834,0.003 0.452879,0.39195 0.13388,0.73436 0.459579,1.54212 0.621802,1.54212 0.08504,0 0.565583,-0.82488 1.067868,-1.83305 0.502285,-1.00818 1.281361,-2.34574 1.73128,-2.97234 1.101644,-1.53428 3.534094,-6.14281 5.842315,-11.06887 1.043804,-2.22762 2.641858,-5.43187 3.551231,-7.12056 0.909373,-1.68868 1.956806,-3.74019 2.327632,-4.5589 0.370823,-0.81873 0.855771,-1.76337 1.07766,-2.09921 0.221889,-0.33584 0.472582,-0.75112 0.557095,-0.92282 0.152466,-0.30979 0.562192,-1.92299 0.679473,-2.67528 0.09543,-0.61213 0.485543,-1.19576 0.912092,-1.36455 0.21419,-0.0848 1.335642,-0.65839 2.492116,-1.27474 1.745915,-0.93048 7.739951,-3.62724 11.414548,-5.13546 0.495631,-0.20344 1.225562,-0.51275 1.622067,-0.68735 2.43954,-1.07431 4.892045,-2.04319 9.071563,-3.58382 0.297378,-0.10961 1.324688,-0.50882 2.282908,-0.88712 0.958221,-0.3783 2.769532,-1.02337 4.02513,-1.43349 1.255602,-0.4101 2.823599,-0.96923 3.484442,-1.2425 1.582393,-0.65432 4.778554,-1.74494 6.728577,-2.29598 0.859095,-0.24276 2.237851,-0.71406 3.063904,-1.04734 0.826052,-0.33328 1.918696,-0.74331 2.428099,-0.91118 0.509403,-0.16787 1.185268,-0.43379 1.501918,-0.59094 1.908189,-0.94702 5.115635,-2.26466 7.965143,-3.27215 1.024304,-0.36215 2.105682,-0.74804 2.403064,-0.85751 0.902477,-0.33223 1.308998,-0.35227 1.995839,-0.0984 0.442633,0.16359 0.685185,0.19653 0.769792,0.10453 0.06794,-0.0739 0.275879,-0.6004 0.462078,-1.17003 0.425408,-1.30145 0.91399,-2.35404 1.337698,-2.88189 0.180575,-0.22495 0.456549,-0.7247 0.613266,-1.11054 0.156727,-0.38585 0.483457,-1.11545 0.726077,-1.62133 0.242611,-0.50589 0.559372,-1.34314 0.703909,-1.86056 0.144528,-0.51742 0.530543,-1.42015 0.857813,-2.00606 0.55875,-1.00034 0.94424,-1.84689 0.94424,-2.07359 0,-0.0548 -0.44607,0.0466 -0.99126,0.2252 -1.2799,0.41922 -3.703602,0.80972 -5.06413,0.81591 -1.263336,0.006 -2.262404,-0.32694 -2.794136,-0.93045 -0.305483,-0.34672 -0.33822,-0.46932 -0.319629,-1.19698 0.01708,-0.66851 0.09314,-0.94148 0.433609,-1.5563 0.443882,-0.80155 1.553338,-2.2126 3.200435,-4.07043 0.566154,-0.63859 0.948271,-1.1309 0.849145,-1.09399 -0.09913,0.0369 -2.937743,1.30066 -6.308038,2.80837 -6.307683,2.82177 -8.181177,3.56115 -11.3019,4.4603 -1.664444,0.47958 -1.944292,0.523 -3.484438,0.54069 -1.817469,0.0209 -2.633895,-0.14161 -3.299047,-0.65663 -0.469503,-0.36354 -0.598429,-0.72774 -0.598429,-1.69052 0,-1.42543 1.235885,-3.63797 3.022551,-5.41112 0.48013,-0.47649 0.840471,-0.86635 0.800758,-0.86635 -0.03969,0 -0.821584,0.29565 -1.737489,0.65702 -2.734365,1.07882 -7.768349,2.67566 -10.028878,3.18129 -1.868399,0.41791 -2.32179,0.47321 -3.879851,0.47321 -1.760981,0 -2.314093,-0.10215 -3.726961,-0.68829 -0.603525,-0.25038 -1.854055,-1.62703 -1.995003,-2.19621 -0.241046,-0.97339 -0.124173,-2.05599 0.33742,-3.1255 0.541043,-1.25362 0.843212,-1.70575 1.816733,-2.71844 l 0.792116,-0.82397 -0.54069,0.0696 c -1.65219,0.21284 -5.608999,0.0627 -6.624158,-0.25135 -0.743006,-0.22985 -1.817435,-1.02122 -2.198665,-1.61941 -0.273059,-0.42845 -0.308816,-0.61441 -0.308816,-1.60607 0,-0.98408 0.0467,-1.2314 0.381094,-2.01809 0.518982,-1.22098 0.854149,-1.74127 2.674522,-4.15181 1.628783,-2.15682 5.040711,-6.1599 5.861772,-6.87738 0.258768,-0.22612 0.449845,-0.43357 0.424618,-0.461 -0.02524,-0.0274 -0.691154,-0.0823 -1.479839,-0.12203 -3.059639,-0.15394 -4.459107,-0.59342 -5.707821,-1.79244 l -0.644368,-0.61873 -0.09276,-1.2104 c -0.08996,-1.17397 -0.08129,-1.23991 0.288001,-2.19031 0.474053,-1.21999 0.894899,-1.860509 2.524097,-3.841602 0.844203,-1.026546 1.242057,-1.602461 1.149834,-1.664435 -0.07756,-0.05212 -0.188674,-0.06275 -0.246921,-0.02364 -0.05825,0.0392 -0.574484,-0.124051 -1.147191,-0.362648 -0.873038,-0.363727 -1.1623,-0.5643 -1.790219,-1.241362 -0.411911,-0.444152 -0.806852,-0.973204 -0.877647,-1.17568 -0.07079,-0.202474 -0.127959,-0.885884 -0.127033,-1.518689 0.002,-1.365561 0.137454,-1.759311 1.191824,-3.464407 0.848506,-1.372173 1.757407,-2.355289 3.159799,-3.417782 2.758971,-2.090288 15.539929,-9.390186 22.125199,-12.636904 3.957951,-1.951376 8.726592,-3.630705 12.404109,-4.368241 0.462591,-0.09277 1.556331,-0.191102 2.430534,-0.218508 1.467464,-0.04602 1.691741,-0.01985 2.922117,0.340749 0.732962,0.214819 1.409976,0.460359 1.504479,0.545644 0.24909,0.224785 0.218542,1.081816 -0.0479,1.344016 -0.291383,0.286737 -0.798573,0.272659 -1.978446,-0.05491 -1.57247,-0.436571 -3.996088,-0.273952 -6.873387,0.461189 -2.460089,0.628543 -6.695849,2.242631 -9.539848,3.635268 -6.340625,3.104858 -18.542895,10.033652 -21.63989,12.287745 -1.232442,0.89701 -2.242894,1.911047 -2.86338,2.87354 -0.840738,1.304147 -1.017998,1.762101 -1.030422,2.662074 -0.01063,0.770029 0.01149,0.8349 0.452335,1.326437 0.619789,0.691065 1.498944,1.039745 2.889597,1.146041 l 1.119607,0.08558 1.248084,-1.23093 c 3.625525,-3.575705 8.565647,-7.540203 11.85464,-9.513474 2.173237,-1.303856 8.314421,-4.348075 11.68185,-5.790753 5.020233,-2.150779 10.360627,-3.890219 13.156771,-4.285337 2.103325,-0.297221 3.395338,-0.309482 4.482424,-0.04251 1.038355,0.254981 1.248091,0.482807 1.320681,1.43458 0.05015,0.658078 0.01886,0.77986 -0.344158,1.337162 -0.956678,1.468782 -2.400849,2.669486 -5.759331,4.788405 -2.965226,1.870803 -2.127253,1.417929 -7.596041,4.105212 -5.390561,2.64884 -9.937581,4.762569 -16.134204,7.500141 -6.62784,2.928078 -8.302824,3.450597 -11.56495,3.607715 l -1.832551,0.08826 -0.672874,0.713893 c -1.459109,1.548071 -3.421166,4.106861 -3.77694,4.925661 -0.483267,1.11221 -0.486863,1.88851 -0.01096,2.36643 0.864407,0.86807 2.377509,1.17159 5.903036,1.18408 l 1.982528,0.007 1.622066,-1.64693 c 3.489456,-3.54292 6.350475,-5.971103 10.738017,-9.11349 8.32311,-5.960997 13.936122,-8.91007 21.098885,-11.085287 1.422833,-0.432094 3.479107,-0.989584 4.569497,-1.238871 1.779484,-0.406825 2.158111,-0.45111 3.696905,-0.432365 1.85824,0.02262 2.58209,0.222953 2.96744,0.821176 0.26287,0.4081 0.22978,1.255221 -0.0701,1.795951 -0.48067,0.866572 -2.12372,2.4229 -4.827633,4.572835 -3.073892,2.444124 -6.174506,4.523108 -9.936972,6.662828 -1.420811,0.808015 -2.718465,1.54972 -2.883674,1.64823 -0.165215,0.09851 -1.54397,0.799776 -3.063908,1.558375 -3.746303,1.869788 -8.764829,3.977148 -13.362996,5.611348 -4.010798,1.42544 -6.005298,2.00418 -8.370616,2.42891 l -1.427732,0.25636 -1.478699,1.50854 c -2.679757,2.73384 -6.632476,7.51112 -7.96207,9.62302 -0.933064,1.48206 -1.217796,2.7157 -0.745367,3.22941 0.542609,0.59002 1.131806,0.77892 2.908808,0.93258 2.064965,0.17856 3.58925,0.10011 5.206513,-0.26795 2.295514,-0.52241 2.468158,-0.60184 3.622986,-1.66683 2.252946,-2.07767 7.749589,-5.83944 12.898071,-8.82711 6.145471,-3.56624 14.11407,-7.20899 18.803966,-8.59603 1.739223,-0.51437 1.845411,-0.52996 3.034261,-0.4455 1.128388,0.0802 1.252137,0.1154 1.471877,0.41917 0.131953,0.18241 0.239911,0.43262 0.239911,0.55601 0,0.44537 -0.56455,1.11826 -1.610682,1.91977 -0.984023,0.75393 -10.578406,6.44156 -15.632417,9.26703 -3.092685,1.72898 -15.653412,7.22396 -18.652075,8.15978 -0.608278,0.18983 -0.960959,0.42656 -1.862372,1.25008 -2.850848,2.60449 -3.935595,4.13394 -3.935595,5.54903 0,0.60284 0.04506,0.72044 0.425646,1.11074 0.693006,0.7107 1.674414,0.96619 3.711405,0.96619 1.432221,0 2.008515,-0.0656 3.561898,-0.40507 2.864535,-0.62612 7.995092,-2.3613 13.027469,-4.40594 2.047037,-0.83171 5.581819,-2.55482 6.728572,-3.28 4.044126,-2.55744 7.558854,-4.4168 10.873859,-5.7525 1.861455,-0.75002 2.390907,-0.9099 3.256634,-0.98339 0.975185,-0.0828 1.052678,-0.0701 1.366739,0.22366 0.387396,0.36234 0.432898,0.84554 0.127358,1.35258 -0.255204,0.42353 -1.025376,0.81026 -5.711953,2.86819 -5.111366,2.24445 -9.765805,4.42855 -10.627157,4.98682 -1.260974,0.81725 -5.603371,4.24897 -6.487751,5.12714 -1.403147,1.39331 -2.509184,3.08632 -2.607833,3.99183 -0.03837,0.35242 0.0036,0.40663 0.43816,0.5668 0.873236,0.32177 2.928733,0.0988 5.226664,-0.56704 2.894781,-0.83875 4.245512,-1.37558 10.573477,-4.20215 8.369721,-3.73859 14.256158,-6.64839 17.272028,-8.53796 l 0.63079,-0.39523 -0.005,-1.20589 c -0.003,-0.66324 -0.0601,-1.64684 -0.127,-2.18579 -0.067,-0.53893 -0.16728,-2.06757 -0.22294,-3.39695 -0.0986,-2.35625 -0.17986,-3.47105 -0.54785,-7.52079 -0.14498,-1.5955 -0.1541,-2.3567 -0.0482,-4.02088 0.11381,-1.78784 0.10596,-2.13168 -0.0608,-2.66387 -0.10531,-0.33607 -0.22595,-1.18304 -0.26808,-1.882139 l -0.0766,-1.271094 0.36873,-0.400951 c 0.48835,-0.531031 0.8326,-0.507785 1.54302,0.104197 0.32253,0.277844 0.70813,0.546395 0.8569,0.59678 0.14876,0.05042 0.31542,0.190541 0.37036,0.31142 0.0549,0.120889 0.10986,1.307477 0.12206,2.636867 0.0135,1.47149 0.0944,2.87076 0.20669,3.57677 0.15964,1.00331 0.16615,1.65521 0.0483,4.83414 -0.12658,3.413 -0.0802,6.31977 0.11323,7.10649 0.0754,0.30671 0.0931,0.28851 0.23725,-0.24378 0.0856,-0.31637 0.39102,-1.10437 0.67859,-1.7511 1.0944,-2.46126 2.27252,-5.29334 2.9349,-7.05523 0.68542,-1.82319 2.61041,-5.76905 3.60123,-7.38186 0.28695,-0.46708 0.66846,-1.201999 0.8478,-1.633157 0.17933,-0.431143 0.67575,-1.37184 1.10315,-2.090435 0.42739,-0.718586 0.93369,-1.718077 1.1251,-2.221092 0.33892,-0.890672 0.55746,-1.325348 1.10181,-2.191466 0.14573,-0.23187 0.57828,-0.970675 0.96123,-1.64179 1.07506,-1.88407 1.06531,-1.873295 1.66059,-1.83349 0.39582,0.02647 0.60579,-0.04173 0.91605,-0.297408 0.91853,-0.757012 1.49398,-0.844899 1.89573,-0.289537 0.37233,0.514716 0.30941,0.857708 -0.35175,1.917303 -0.33042,0.529551 -0.60076,1.026994 -0.60076,1.105435 0,0.07844 -0.38817,0.925686 -0.86258,1.882767 -0.47442,0.957082 -1.09808,2.269284 -1.3859,2.916016 -0.28783,0.646733 -0.87391,1.828602 -1.30242,2.62638 -0.49266,0.917234 -0.95907,2.022004 -1.26863,3.005004 -0.50768,1.61211 -1.22898,3.05471 -2.31618,4.63235 -0.33779,0.49017 -0.85285,1.40922 -1.14458,2.04234 -0.29172,0.63312 -0.64715,1.30499 -0.78984,1.49306 -0.14269,0.18806 -0.33299,0.54082 -0.42288,0.78392 -0.0899,0.24307 -0.42219,0.94171 -0.73844,1.55252 -0.31624,0.6108 -0.71636,1.4927 -0.88914,1.95978 -0.34944,0.94465 -2.28128,5.19221 -2.47972,5.45221 -0.15675,0.20538 -0.14649,0.20477 0.44354,-0.0264 0.68653,-0.26894 1.218,-0.24715 1.50191,0.0616 0.3026,0.32904 0.31924,1.06376 0.03,1.32616 -0.11565,0.10493 -0.97498,0.59261 -1.90963,1.08374 l -1.69935,0.89296 -0.20445,0.66765 c -0.16194,0.52882 -0.21814,1.35366 -0.27029,3.96663 -0.0362,1.81443 -0.027,3.29897 0.0204,3.29897 0.0474,0 0.47419,-0.27383 0.94835,-0.60852 2.34898,-1.65801 7.57878,-4.69536 9.95758,-5.78315 0.99354,-0.45433 1.2911,-0.5329 2.01803,-0.5329 0.74509,0 0.88987,0.0405 1.14758,0.32069 0.22257,0.24202 0.29492,0.45987 0.29492,0.88805 0,0.72775 -0.36356,1.12047 -2.36398,2.55355 -1.44649,1.03626 -8.30925,5.03636 -10.7148,6.24534 l -1.24369,0.62505 0.0808,1.70622 c 0.0445,0.93842 0.13057,2.20597 0.19137,2.81676 0.0608,0.61081 0.11098,1.41738 0.11152,1.79238 8.6e-4,0.59316 0.0284,0.67119 0.21126,0.60008 0.21119,-0.082 0.49745,-0.28029 4.3387,-3.00393 1.82261,-1.29232 2.14975,-1.47896 2.59238,-1.47896 0.81425,0 1.32194,0.84716 0.87887,1.46654 -0.2452,0.34279 -2.76255,2.12651 -5.01639,3.55448 -1.15647,0.7327 -2.22022,1.4133 -2.36387,1.51243 -0.25389,0.1752 -0.26261,0.26819 -0.31156,3.32336 -0.0277,1.72871 -0.0936,3.2811 -0.14637,3.44977 -0.085,0.27124 -0.0698,0.29196 0.13133,0.17935 0.67076,-0.37564 1.08997,-0.42593 1.86282,-0.22348 1.66857,0.43706 2.03086,0.56864 3.59117,1.30428 0.49563,0.23367 1.38777,0.61317 1.98253,0.84332 1.69001,0.65398 3.53626,1.45254 4.32551,1.87091 0.39651,0.21017 1.25427,0.58066 1.90612,0.82328 0.65187,0.24263 1.26065,0.50922 1.35284,0.59243 0.20959,0.18915 3.3526,1.96368 5.27191,2.97651 0.79301,0.41848 1.63705,0.9053 1.87564,1.08183 0.2386,0.17653 1.15778,0.63487 2.04261,1.01852 0.88484,0.38365 2.01431,0.91763 2.50995,1.18661 0.49563,0.26898 1.60404,0.87098 2.46314,1.33778 0.85909,0.46679 2.15674,1.06876 2.88367,1.3377 0.72693,0.26896 2.59855,1.18307 4.15916,2.03138 2.27311,1.23559 3.21709,1.67117 4.74605,2.18993 2.83824,0.96299 7.78665,3.36387 10.13792,4.91876 0.62718,0.41474 1.62745,0.9533 2.22284,1.19681 1.10363,0.45137 1.90095,0.86953 2.22397,1.16634 0.0991,0.0911 0.42354,0.26968 0.72092,0.39688 1.1477,0.49091 1.81221,1.3603 1.97676,2.58626 0.0472,0.35193 0.20957,0.85168 0.36074,1.11054 0.15118,0.25888 0.66941,1.23501 1.15159,2.16917 0.4822,0.93417 1.44199,2.60978 2.13286,3.7236 0.69088,1.11381 1.66055,2.86448 2.1548,3.89038 0.49425,1.02589 1.50342,2.8191 2.2426,3.9849 0.73916,1.16579 1.52607,2.56057 1.74868,3.09952 0.745,1.80367 1.42362,3.20914 2.17903,4.51297 0.41219,0.71145 0.90381,1.61859 1.09248,2.01588 0.1887,0.39729 0.66085,1.11518 1.04925,1.59534 l 0.70619,0.87296 0.22953,-0.28503 c 0.12625,-0.15678 0.38171,-0.53309 0.56768,-0.83626 0.18597,-0.30317 0.43804,-0.5857 0.56016,-0.62783 0.24742,-0.0854 0.7117,0.13615 0.7117,0.33961 0,0.24278 -0.46358,1.09739 -0.80968,1.49269 -0.18875,0.21558 -0.51409,0.71821 -0.72299,1.11695 -0.5232,0.99875 -0.77608,1.28614 -1.21585,1.38178 -0.30506,0.0663 -0.43737,0.0173 -0.68762,-0.25481 -0.17044,-0.18533 -0.27769,-0.39363 -0.23833,-0.46289 0.0393,-0.0693 -0.091,-0.30272 -0.28974,-0.51881 -0.2503,-0.27216 -0.36131,-0.52066 -0.36131,-0.80875 0,-0.26015 -0.1291,-0.59413 -0.34476,-0.89195 -0.18962,-0.26184 -0.48578,-0.78018 -0.65813,-1.15184 -0.17235,-0.37168 -0.70028,-1.34177 -1.17317,-2.15577 -0.47287,-0.814 -1.21351,-2.30311 -1.64583,-3.30913 -0.90893,-2.1151 -0.811,-1.93264 -2.31383,-4.31153 -0.63552,-1.00602 -1.59516,-2.7284 -2.13253,-3.82751 -0.53737,-1.0991 -1.51379,-2.86291 -2.16982,-3.91957 -0.65602,-1.05665 -1.44051,-2.39154 -1.74329,-2.96641 l -0.55054,-1.04523 -0.0303,1.56783 c -0.0166,0.86231 -0.0383,2.00879 -0.0482,2.54773 -0.01,0.53894 -0.0568,2.97887 -0.10455,5.42207 -0.0477,2.4432 -0.10013,7.14668 -0.11655,10.45219 -0.0295,5.94268 -0.13421,7.84658 -0.45492,8.27168 -0.0831,0.1101 -0.58357,0.42773 -1.11224,0.70583 -0.52868,0.27813 -1.31268,0.76793 -1.74222,1.08846 -0.42955,0.32053 -1.02431,0.6784 -1.32169,0.79525 -0.29738,0.11686 -1.10841,0.49581 -1.8023,0.84212 -0.69388,0.34632 -1.55898,0.75482 -1.92244,0.90777 -0.36348,0.15297 -1.03934,0.50444 -1.50192,0.78106 -0.46259,0.27662 -1.16549,0.63215 -1.562,0.79006 -0.3965,0.15793 -0.76135,0.32678 -0.81078,0.37525 -0.0495,0.0485 0.27545,0.64384 0.72195,1.32306 0.4465,0.6792 1.05077,1.69052 1.34282,2.24738 0.29204,0.55686 0.9297,1.58574 1.41703,2.28641 0.48731,0.70068 0.98675,1.47974 1.10986,1.73124 0.1231,0.25151 0.48525,0.77056 0.80478,1.15344 l 0.58094,0.69616 0.45086,-0.45277 c 0.25379,-0.25486 0.48332,-0.62924 0.52512,-0.85654 0.094,-0.51127 0.30411,-0.70109 0.71681,-0.64772 0.60106,0.0777 0.62113,0.37361 0.1017,1.49956 -0.26004,0.56372 -0.59446,1.22423 -0.74316,1.46779 -0.14868,0.24358 -0.27034,0.55556 -0.27034,0.69329 0,0.3019 -0.69127,1.01963 -0.98204,1.01963 -0.29009,0 -0.4584,-0.37893 -0.33064,-0.74438 0.0938,-0.26814 0.0696,-0.30113 -0.22226,-0.30347 -0.21808,-0.002 -0.43897,-0.14354 -0.66142,-0.42462 -0.77503,-0.97926 -1.13847,-1.49726 -1.3961,-1.98982 -0.15035,-0.28744 -0.67539,-1.11055 -1.16676,-1.82913 -0.49136,-0.71859 -1.20307,-1.86827 -1.58156,-2.55483 -0.3785,-0.68657 -0.98397,-1.70387 -1.34549,-2.26069 -0.58785,-0.90538 -0.68943,-1.00384 -0.96123,-0.9317 -0.16715,0.0444 -1.16227,0.61251 -2.21138,1.26249 -1.0491,0.64998 -2.68443,1.52651 -3.63406,1.94781 -0.94964,0.42131 -1.9672,0.88519 -2.26126,1.03087 -0.63285,0.31349 -1.35413,0.34214 -1.71395,0.0681 -0.24244,-0.18466 -0.27525,-0.17059 -0.53297,0.22864 -0.366,0.56693 -0.55204,0.70939 -1.13783,0.87137 -0.27165,0.0751 -0.84831,0.30946 -1.28145,0.52079 -0.43316,0.21132 -1.31931,0.54097 -1.96923,0.73255 -0.64993,0.19157 -1.72238,0.57446 -2.38322,0.85087 -0.66084,0.2764 -1.85035,0.73446 -2.64337,1.01789 -1.91232,0.68352 -3.93188,1.48165 -5.20872,2.05853 -0.57158,0.25824 -1.52052,0.64031 -2.10874,0.84906 -0.58823,0.20873 -1.09337,0.40549 -1.12255,0.43723 -0.10786,0.11728 0.73685,2.39685 1.26311,3.40865 0.299,0.57487 0.90279,1.95652 1.34176,3.07033 0.50811,1.28925 0.86173,2.02511 0.97317,2.02511 0.0963,0 0.31539,-0.28256 0.48692,-0.62791 0.44646,-0.89888 0.62302,-1.06528 0.93667,-0.88275 0.43619,0.25384 0.31096,0.63485 -0.91068,2.77082 -1.20437,2.10576 -1.54665,2.46758 -1.93495,2.04534 z m -11.73296,-10.93914 c 0.0628,-0.0667 0.57373,-0.24785 1.13545,-0.40276 0.56171,-0.15488 1.26461,-0.38955 1.56199,-0.52148 0.29738,-0.13193 1.1645,-0.44822 1.92693,-0.70286 0.76243,-0.25464 1.58436,-0.55298 1.82651,-0.663 l 0.44027,-0.20003 -0.71005,-2.27996 c -0.39053,-1.25398 -0.79585,-2.65074 -0.90073,-3.10388 -0.36454,-1.57531 -1.80559,-5.41134 -2.93534,-7.81384 -0.62514,-1.32939 -1.3608,-3.02642 -1.63481,-3.77118 l -0.4982,-1.35411 -0.0806,1.44311 c -0.0443,0.79372 -0.0465,2.52014 -0.005,3.8365 0.0573,1.81011 0.015,3.31679 -0.17376,6.18231 -0.30439,4.6215 -0.40982,9.4723 -0.20588,9.4723 0.0764,0 0.19027,-0.0545 0.25305,-0.12112 z m -34.099364,-3.26242 c 0.33586,-0.28868 2.358887,-1.69319 4.495618,-3.12114 2.136731,-1.42796 7.534617,-5.17404 11.9953,-8.32462 4.460686,-3.15059 8.596966,-6.02138 9.191726,-6.37952 0.59475,-0.35814 1.47807,-0.94114 1.96293,-1.29555 0.48486,-0.35442 1.40402,-0.94215 2.0426,-1.30606 1.28752,-0.73377 1.86709,-1.13858 1.7744,-1.23936 -0.12405,-0.13489 -2.15249,-0.29521 -2.28308,-0.18045 -0.0729,0.0641 -0.97063,0.60134 -1.99494,1.19393 -1.0243,0.59259 -2.15976,1.29678 -2.52322,1.56489 -0.36346,0.2681 -1.01229,0.71297 -1.44184,0.9886 -0.42955,0.27563 -1.18651,0.80319 -1.68214,1.17235 -0.94827,0.70632 -2.57862,1.77915 -4.855386,3.19501 -0.751091,0.46709 -2.088093,1.39505 -2.971123,2.06214 -1.55069,1.17149 -5.249016,3.71835 -6.111257,4.20855 -0.231293,0.1315 -1.108121,0.75867 -1.948502,1.39372 -1.776148,1.34217 -5.807872,4.18523 -6.409719,4.51996 -0.382376,0.21266 -0.413056,0.27555 -0.414283,0.84924 -9.43e-4,0.34076 -0.03574,0.84604 -0.07778,1.12282 l -0.07646,0.50326 0.358252,-0.20145 c 0.19704,-0.11079 0.633046,-0.43763 0.968906,-0.72632 z m -3.0379,0.41121 c 0.045,-0.12576 0.109884,-0.87538 0.144148,-1.66583 0.03429,-0.79044 0.276842,-2.87723 0.539061,-4.63731 0.629358,-4.22443 1.200336,-9.70441 1.157199,-11.1063 l -0.03415,-1.11054 -0.28251,0.91457 c -0.155378,0.503 -0.604704,1.80587 -0.998505,2.89524 -0.487863,1.34958 -0.768156,2.34868 -0.879685,3.13566 -0.125651,0.88665 -0.318689,1.51961 -0.830925,2.7245 -0.496864,1.16875 -0.833332,2.25664 -1.317621,4.26029 -0.357703,1.47993 -0.710457,2.81284 -0.783892,2.96206 -0.204723,0.41594 -0.168907,0.50142 0.31705,0.75659 0.401702,0.21094 2.615021,1.07036 2.810743,1.09139 0.04251,0.004 0.114094,-0.0946 0.159111,-0.22032 z m 47.284194,-0.86656 c 0.62781,-0.24047 1.49291,-0.60164 1.92245,-0.80261 0.77425,-0.36226 2.86808,-1.18585 5.52441,-2.17297 0.75853,-0.28189 1.48846,-0.62248 1.62207,-0.75691 0.13362,-0.13442 0.47175,-0.31042 0.7514,-0.39112 0.27966,-0.0807 0.85094,-0.31381 1.26953,-0.51805 0.4186,-0.20422 1.27117,-0.52942 1.89461,-0.72265 0.62344,-0.19324 1.4985,-0.53262 1.94456,-0.75418 0.76117,-0.37807 0.81104,-0.42919 0.81104,-0.83145 0,-0.23573 0.0946,-0.53217 0.21027,-0.65873 0.16596,-0.18163 0.21407,-0.47952 0.22834,-1.41385 0.01,-0.65105 0.0562,-2.80054 0.10284,-4.77665 0.11132,-4.7191 -0.17543,-11.44277 -0.60812,-14.25888 -0.16158,-1.05173 -0.29379,-2.18004 -0.29379,-2.50735 0,-0.32731 -0.0541,-0.63146 -0.12015,-0.67586 -0.0661,-0.0444 -0.12016,-0.19487 -0.12016,-0.33435 0,-0.32369 -0.0552,-0.31898 -0.65028,0.0554 -0.27015,0.16995 -0.70745,0.38377 -0.97178,0.47512 -0.26434,0.0914 -0.72394,0.29814 -1.02131,0.45951 -0.29738,0.16137 -1.13545,0.50859 -1.86237,0.77159 -0.72693,0.263 -2.48417,1.09945 -3.90498,1.85879 -3.36117,1.7963 -3.661,1.9454 -4.44566,2.21046 -0.36347,0.12278 -1.12043,0.44365 -1.68215,0.71304 -0.56172,0.26939 -1.23758,0.56337 -1.50191,0.65329 -0.26435,0.0899 -1.00712,0.44943 -1.65063,0.7989 -0.6435,0.34948 -1.58721,0.7877 -2.09712,0.97384 -0.50992,0.18613 -1.47031,0.63516 -2.1342,0.99787 -0.66391,0.36271 -1.47744,0.76111 -1.80786,0.88534 -0.35709,0.13427 -0.59311,0.29905 -0.58188,0.40626 0.0592,0.5657 1.98262,5.47745 2.89576,7.39489 1.01799,2.13764 2.79143,6.7647 2.96853,7.74518 0.0454,0.2515 0.43778,1.61845 0.87189,3.03766 0.69393,2.26859 0.81986,2.5801 1.04225,2.57803 0.13912,-0.002 0.7666,-0.19911 1.3944,-0.43957 z M 75.068794,226.8982 c 0.118712,-0.34133 0.503798,-1.76707 0.855748,-3.16832 0.421924,-1.67986 0.85477,-3.05954 1.270679,-4.05022 0.461428,-1.09912 0.673385,-1.80067 0.789477,-2.61305 0.104793,-0.73331 0.400009,-1.77626 0.86909,-3.07033 0.390717,-1.07788 1.129783,-3.34143 1.642364,-5.03011 0.512586,-1.68869 1.031366,-3.34548 1.152844,-3.68176 l 0.220867,-0.61143 -0.385423,-0.0906 c -0.21198,-0.0498 -0.628732,-0.22364 -0.926109,-0.38625 -0.297378,-0.16261 -0.910424,-0.41962 -1.362321,-0.57114 -0.451897,-0.15151 -0.96555,-0.38586 -1.141454,-0.52074 -0.617479,-0.47348 -1.544188,-0.91271 -3.745636,-1.77533 -2.430761,-0.95247 -2.268322,-0.87807 -4.915231,-2.2513 -1.019023,-0.52867 -2.154473,-1.05073 -2.523216,-1.16013 -0.368743,-0.10941 -1.427405,-0.60969 -2.352584,-1.11176 -1.8426,-0.9999 -6.212654,-2.90389 -6.517524,-2.83959 -0.115947,0.0245 -0.293463,0.37479 -0.450725,0.88957 -0.142695,0.46708 -0.349901,1.0769 -0.460461,1.35514 -0.172544,0.43425 -0.201227,1.04494 -0.202489,4.31153 -9.43e-4,2.25208 -0.07312,4.68566 -0.176983,5.96139 -0.09653,1.18567 -0.232673,3.39043 -0.302544,4.89946 -0.06987,1.50904 -0.228891,3.655 -0.35338,4.76881 -0.124487,1.11382 -0.254352,2.56627 -0.288587,3.22767 -0.06867,1.32664 -0.117844,1.23827 0.780356,1.40252 0.241112,0.0441 0.574816,0.19686 0.74156,0.33948 0.166745,0.14263 0.564229,0.31317 0.883299,0.379 0.319071,0.0658 0.985641,0.24633 1.481273,0.40111 0.495634,0.15479 1.339434,0.41705 1.875116,0.5828 0.535683,0.16576 1.076374,0.35899 1.201534,0.42941 0.125157,0.0705 0.524943,0.19993 0.888404,0.28777 0.363466,0.0878 0.958221,0.27725 1.321687,0.42092 0.363461,0.14368 0.971198,0.37174 1.350526,0.5068 0.379324,0.13505 0.838909,0.3294 1.021303,0.43187 0.182389,0.10247 0.656029,0.30665 1.052532,0.45375 0.396508,0.14708 1.26161,0.48281 1.922453,0.74605 1.381013,0.5501 4.416052,1.72491 4.50669,1.74446 0.03356,0.007 0.158152,-0.26612 0.276865,-0.60745 z m 7.819314,-0.97989 c 0.416439,-0.3054 1.58144,-1.11381 2.588891,-1.79648 1.007448,-0.68265 2.326954,-1.62732 2.932231,-2.09925 0.605281,-0.47195 1.370854,-1.02815 1.701277,-1.23604 1.685401,-1.06036 4.876431,-3.24771 6.368113,-4.36514 1.552988,-1.16337 2.341505,-1.69219 5.759,-3.86229 0.67899,-0.43116 1.49931,-0.99121 1.82297,-1.24458 0.32364,-0.25335 0.99397,-0.71751 1.48959,-1.03146 0.49563,-0.31394 1.22557,-0.81619 1.62207,-1.11613 0.70421,-0.53268 2.10079,-1.40278 3.18406,-1.98373 0.46101,-0.24723 0.50635,-0.30433 0.30766,-0.38752 -0.12818,-0.0536 -0.91217,-0.0245 -1.74222,0.0649 -1.59642,0.17184 -1.40897,0.1 -3.43164,1.315 -0.33042,0.19847 -0.96659,0.63913 -1.4137,0.97923 -0.44711,0.3401 -1.17704,0.82808 -1.62206,1.08439 -0.44503,0.2563 -1.34984,0.82734 -2.01068,1.26896 -0.66084,0.44161 -1.580006,1.03031 -2.042598,1.30821 -0.462592,0.27789 -1.381758,0.89558 -2.042604,1.37264 -0.660842,0.47705 -1.505001,1.05104 -1.875914,1.27554 -0.370909,0.2245 -1.371185,0.90143 -2.222832,1.50427 -2.191049,1.55098 -2.941022,2.05072 -5.191483,3.45932 -3.082617,1.92946 -4.678465,3.1162 -4.757306,3.53771 -0.243468,1.3017 -0.361476,2.50774 -0.245376,2.50774 0.03597,0 0.406108,-0.24987 0.822551,-0.55527 z m 0.878895,-4.30197 c 0.476124,-0.34659 0.886718,-0.63016 0.912431,-0.63016 0.143393,0 3.922439,-2.45546 5.981864,-3.88676 1.31839,-0.91628 2.902785,-1.98932 3.520886,-2.38455 0.618101,-0.39522 1.603936,-1.06166 2.19074,-1.48099 1.279518,-0.9143 3.899286,-2.62315 5.392436,-3.5174 0.59476,-0.35619 1.48689,-0.95077 1.98252,-1.32125 0.49564,-0.3705 1.21338,-0.84488 1.59497,-1.05422 0.43756,-0.24001 0.64038,-0.41652 0.54912,-0.47783 -0.26903,-0.1808 -2.38732,-0.29067 -2.66459,-0.1382 -0.14326,0.0787 -0.63191,0.29192 -1.08587,0.47364 -0.92178,0.36899 -1.77723,0.89904 -3.390691,2.1009 -0.600648,0.44742 -2.033476,1.37133 -3.184058,2.05311 -1.150581,0.6818 -2.903002,1.75823 -3.894264,2.39208 -0.991262,0.63384 -2.640965,1.65528 -3.666001,2.26984 -1.025035,0.61455 -2.568774,1.58621 -3.430533,2.15921 l -1.566831,1.04182 -0.204232,1.44058 c -0.112332,0.79231 -0.204173,1.51753 -0.2041,1.61159 1.22e-4,0.1974 4.9e-5,0.19745 1.166203,-0.65141 z m 62.145447,-0.43066 c 0.60218,-0.23103 4.34419,-2.02117 4.51493,-2.15992 0.0661,-0.0537 0.85664,-0.50765 1.75677,-1.00881 l 1.63662,-0.9112 -0.77747,-1.42408 c -0.4276,-0.78324 -1.29434,-2.62935 -1.92606,-4.10246 -1.24827,-2.91084 -1.21358,-2.84662 -3.04184,-5.63186 -0.68894,-1.04954 -1.70311,-2.66637 -2.25373,-3.59294 -0.80473,-1.35422 -0.98724,-1.59497 -0.93044,-1.22739 0.32269,2.08797 0.53548,12.38608 0.35533,17.19526 -0.0678,1.80929 -0.0169,3.05586 0.12473,3.05586 0.0218,0 0.26526,-0.0866 0.54116,-0.19246 z m -91.850019,-2.51857 c 0.04421,-0.70063 0.180767,-2.18517 0.303479,-3.29898 0.122711,-1.11381 0.256795,-2.93642 0.297962,-4.05022 0.04116,-1.11382 0.152294,-2.99521 0.246947,-4.18088 0.09465,-1.18567 0.169917,-3.12586 0.167253,-4.31153 l -0.0048,-2.15577 -0.895006,1.92581 c -0.492251,1.05919 -1.134084,2.67601 -1.426294,3.59294 -0.292211,0.91692 -1.159412,3.09482 -1.927116,4.83976 -1.21888,2.77043 -2.404089,5.76439 -2.316426,5.85155 0.148222,0.14734 1.744647,0.86355 2.312044,1.03724 1.044616,0.3198 1.696081,0.70084 2.390733,1.39835 0.337203,0.33859 0.648601,0.61786 0.691998,0.62061 0.04339,0.003 0.115068,-0.56826 0.15927,-1.26888 z m 33.207955,-3.12965 c 1.213474,-0.73986 2.222116,-1.34521 2.241425,-1.34521 0.0193,0 0.864816,-0.53562 1.878894,-1.19027 1.014081,-0.65465 2.787096,-1.74654 3.94004,-2.42643 1.152943,-0.67989 2.288393,-1.40037 2.523213,-1.60108 0.640037,-0.54704 2.130448,-1.57141 2.993502,-2.05743 0.42033,-0.23672 0.69067,-0.4555 0.60076,-0.48618 -0.0899,-0.0307 -0.81964,-0.0893 -1.621629,-0.13019 -1.696239,-0.0865 -2.155728,0.0373 -3.720083,1.00243 -0.522263,0.32222 -1.219917,0.72383 -1.550336,0.89246 -0.330419,0.16862 -1.168489,0.66454 -1.862373,1.10202 -0.693885,0.43747 -2.315955,1.40123 -3.604594,2.14167 -1.288644,0.74047 -3.082822,1.84257 -3.987065,2.44913 -1.794445,1.20371 -1.698385,1.0682 -1.836388,2.59029 -0.0391,0.43115 -0.101919,1.00847 -0.139611,1.28292 l -0.06853,0.499 1.003229,-0.68897 c 0.551776,-0.37893 1.99607,-1.2943 3.209542,-2.03416 z m 69.360924,0.12109 c 0.50445,-0.21083 1.36955,-0.64946 1.92245,-0.97473 0.5529,-0.32527 1.14043,-0.6338 1.30564,-0.68559 0.16522,-0.0518 0.89514,-0.40072 1.62207,-0.77536 0.72693,-0.37464 1.55686,-0.76209 1.84429,-0.86099 0.28745,-0.0989 0.85516,-0.43141 1.26161,-0.73891 0.40646,-0.30751 0.99851,-0.71019 1.31568,-0.89484 l 0.57666,-0.33574 -0.0199,-3.42415 c -0.011,-1.88329 0.038,-5.12916 0.10872,-7.21307 0.0707,-2.0839 0.18493,-6.22885 0.25377,-9.21099 0.0688,-2.98214 0.18037,-6.21579 0.24782,-7.18588 0.0675,-0.9701 0.12175,-2.10686 0.12063,-2.52616 l -0.003,-0.76236 -0.55761,0.53371 c -0.30668,0.29356 -0.61115,0.53372 -0.67661,0.53372 -0.27536,0 -2.36521,1.41746 -3.43633,2.33073 -1.44715,1.23386 -5.38661,3.86257 -9.38801,6.26439 -2.5622,1.53795 -3.08606,1.90145 -3.19576,2.21747 -0.10962,0.31579 -0.33095,0.46964 -1.34541,0.9351 -0.90728,0.4163 -1.43582,0.76247 -2.09097,1.36952 -0.48224,0.4468 -1.14713,0.97195 -1.47755,1.16698 l -0.60076,0.3546 0.0427,0.68306 c 0.0387,0.61961 0.11898,0.78624 0.86405,1.79361 0.45175,0.6108 1.44457,2.15509 2.20625,3.43176 0.76169,1.27666 1.93699,3.1514 2.61179,4.16606 1.04867,1.57684 1.40655,2.26144 2.46334,4.71215 1.46014,3.38615 2.64617,5.63627 2.92134,5.54235 0.10171,-0.0347 0.59767,-0.23562 1.10212,-0.44644 z M 47.453729,214.43944 c 0.04657,-0.17187 0.776772,-1.9017 1.622662,-3.84404 0.84589,-1.94235 1.740485,-4.1765 1.987987,-4.9648 0.471601,-1.50203 1.282039,-3.38972 2.995766,-6.97778 l 1.025722,-2.14759 v -1.15139 c 0,-0.97719 0.03636,-1.19093 0.240306,-1.4127 0.132169,-0.14372 0.343155,-0.2613 0.468858,-0.2613 0.24149,0 0.492367,-0.57062 0.492367,-1.11987 0,-0.38628 -0.674489,-1.01144 -2.282909,-2.11595 -1.203598,-0.82651 -1.682395,-1.21543 -2.656978,-2.15823 -0.23878,-0.231 -1.101256,-0.85806 -1.916614,-1.39349 -0.815358,-0.53544 -1.847156,-1.27183 -2.292884,-1.63644 -0.445728,-0.36463 -1.232354,-0.9191 -1.748057,-1.23219 -0.515702,-0.31307 -1.350101,-0.94273 -1.854217,-1.39924 -0.504116,-0.4565 -1.606178,-1.27655 -2.449027,-1.82233 -0.842849,-0.54577 -2.110933,-1.45172 -2.817965,-2.0132 -1.36664,-1.08531 -2.227796,-1.62662 -2.401741,-1.50972 -0.164596,0.1106 -0.577989,2.18683 -0.781172,3.92336 -0.296981,2.53817 -1.026766,12.97682 -1.026766,14.6866 0,1.13274 -0.101001,2.24033 -0.360459,3.95284 -0.318178,2.10008 -0.360382,2.69428 -0.35979,5.06574 3.61e-4,1.50594 0.0572,2.90799 0.129309,3.19035 0.123028,0.48179 0.189813,0.53517 1.531283,1.22403 0.771453,0.39615 1.564849,0.85108 1.763103,1.01097 0.198252,0.15989 0.721386,0.44699 1.162517,0.63802 1.334656,0.57794 3.498998,1.68862 6.345471,3.25627 l 2.701864,1.48804 0.198341,-0.48172 c 0.109087,-0.26496 0.236448,-0.62236 0.283023,-0.79424 z m 37.729948,-1.55999 c 0.624382,-0.42773 2.258691,-1.41787 3.631797,-2.2003 1.37311,-0.78243 3.038594,-1.76721 3.701076,-2.18839 0.662479,-0.42119 1.785631,-1.08737 2.495887,-1.48041 1.470897,-0.81395 1.464062,-0.83585 -0.301614,-0.96706 -0.641865,-0.0477 -1.326172,-0.12133 -1.520682,-0.16363 -0.253996,-0.0553 -0.365291,-0.023 -0.394959,0.11435 -0.02271,0.10518 -0.987512,0.71959 -2.143988,1.36532 -1.966812,1.09822 -4.415915,2.54961 -6.263401,3.71184 l -0.796435,0.50103 0.0051,1.17253 c 0.0058,1.35824 -0.176185,1.34278 1.587262,0.13472 z m -0.359909,-3.02132 c 1.765663,-1.09579 4.478224,-2.68589 5.815211,-3.40887 l 1.249394,-0.6756 -0.768784,-0.1595 c -1.212283,-0.25152 -2.014631,-0.22328 -2.251433,0.0792 -0.10972,0.14017 -1.289843,0.85031 -2.6225,1.57808 -1.332653,0.72778 -2.502163,1.42151 -2.59891,1.54163 -0.128388,0.1594 -0.15955,0.4213 -0.115365,0.96963 0.03329,0.4132 0.09439,0.75019 0.135774,0.74888 0.04137,-0.002 0.561853,-0.30437 1.156613,-0.67348 z m 0.86978,-3.17838 c 1.195299,-0.64673 2.177964,-1.21997 2.1837,-1.27387 0.0057,-0.0539 -0.444921,-0.098 -1.001461,-0.098 h -1.011884 l -1.331101,0.86633 c -1.169827,0.76134 -1.331104,0.9091 -1.331104,1.21941 0,0.35605 0.10047,0.56263 0.241893,0.49737 0.04219,-0.0195 1.054658,-0.56452 2.249957,-1.21125 z m -1.881133,-1.26277 c -0.327367,-0.13169 -0.313245,-0.14028 -0.426416,0.25966 l -0.08586,0.30344 0.398709,-0.2242 c 0.396953,-0.22321 0.397457,-0.2247 0.113567,-0.3389 z m 34.214435,-0.11289 c 0.11647,-0.15477 2.44961,-1.28863 5.60638,-2.72459 2.97379,-1.35273 5.89351,-2.70792 6.48827,-3.01156 1.48403,-0.75762 3.78242,-1.74969 4.86091,-2.09814 0.49271,-0.15919 1.1956,-0.43519 1.56199,-0.61332 0.36637,-0.17815 1.39777,-0.60526 2.29199,-0.94914 1.91665,-0.73707 2.63959,-1.11554 2.63959,-1.38188 0,-0.10685 -0.37849,-0.59695 -0.84108,-1.0891 -0.46259,-0.49216 -0.84107,-0.9514 -0.84107,-1.02053 0,-0.22552 -0.76717,-1.05877 -1.39295,-1.51293 -1.0075,-0.73119 -1.61812,-1.30413 -2.07735,-1.94919 -1.86801,-2.62392 -5.60138,-6.89613 -8.46032,-9.68139 -0.82806,-0.80672 -1.86088,-1.9371 -2.29517,-2.51197 -0.43429,-0.57486 -1.10135,-1.30859 -1.48237,-1.6305 -0.38101,-0.3219 -0.95602,-0.9307 -1.27783,-1.35288 -0.32179,-0.42217 -0.83544,-0.95121 -1.14145,-1.17564 -0.306,-0.22443 -1.1586,-1.05607 -1.89466,-1.8481 -0.73605,-0.79203 -1.68238,-1.79282 -2.10296,-2.22397 -0.42058,-0.43116 -1.00289,-1.16608 -1.29401,-1.63316 -0.29113,-0.46708 -0.9258,-1.30918 -1.41039,-1.87133 -0.60449,-0.70127 -1.0568,-1.39209 -1.44091,-2.2008 -0.48042,-1.01147 -0.70096,-1.31283 -1.55447,-2.12423 -0.55734,-0.52984 -1.24196,-1.34294 -1.55718,-1.84944 -0.68368,-1.09852 -1.32845,-1.84601 -2.26622,-2.62724 l -0.70881,-0.59049 -0.70651,0.16303 c -0.38858,0.0897 -0.72884,0.20232 -0.75614,0.25035 -0.0615,0.10825 0.31063,2.00927 0.71734,3.66427 0.16775,0.68266 0.55091,2.53465 0.85145,4.11555 0.30054,1.58089 0.80903,3.9053 1.12997,5.16535 0.32093,1.26005 0.6461,2.78868 0.7226,3.39697 0.23167,1.8422 0.70033,4.16423 1.13298,5.61346 0.22526,0.75451 0.47196,1.87159 0.54822,2.48239 0.26121,2.09196 1.2133,7.22087 1.56156,8.41217 0.19147,0.65494 0.51464,2.06745 0.71816,3.13893 0.20353,1.07149 0.47928,2.21666 0.61278,2.54483 0.1335,0.32819 0.43125,1.41069 0.66165,2.40555 0.23041,0.99486 0.66142,2.46777 0.95781,3.27314 0.29638,0.80536 0.72563,2.22625 0.95389,3.15753 0.22826,0.93128 0.46303,1.71063 0.52172,1.7319 0.0587,0.0213 0.20899,0.12288 0.33401,0.2258 0.30543,0.25141 0.39437,0.24156 0.62858,-0.0697 z m -3.32246,-1.97055 c -0.19201,-0.74651 -0.57008,-1.94521 -0.84018,-2.66381 -0.27009,-0.71857 -0.65999,-2.04143 -0.86644,-2.93967 -0.20644,-0.89823 -0.50769,-1.98592 -0.66946,-2.41707 -0.16175,-0.43115 -0.46025,-1.66581 -0.66333,-2.7437 -0.20308,-1.07788 -0.52662,-2.48893 -0.71896,-3.13565 -0.33743,-1.1345 -1.26464,-6.14249 -1.56024,-8.42708 -0.079,-0.6108 -0.34837,-1.81607 -0.59851,-2.67837 -0.44874,-1.54686 -0.98363,-4.24317 -1.13584,-5.72557 -0.043,-0.41843 -0.3455,-1.82948 -0.6723,-3.13566 -0.3268,-1.30618 -0.83837,-3.63894 -1.13682,-5.18391 -0.29846,-1.54496 -0.72483,-3.60273 -0.94749,-4.57283 -0.22265,-0.97009 -0.47965,-2.11656 -0.5711,-2.54772 -0.0914,-0.43116 -0.20434,-0.76922 -0.25089,-0.75125 -0.0465,0.0179 -0.56648,0.0326 -1.1554,0.0326 h -1.07076 l -0.32801,0.94723 c -0.18042,0.52098 -0.72588,1.87241 -1.21215,3.00319 -0.48628,1.13078 -0.884143,2.08738 -0.884143,2.12579 0,0.0384 -0.215703,0.55366 -0.47935,1.14502 -0.263648,0.59136 -0.61228,1.56038 -0.774741,2.15338 -0.162461,0.593 -0.505488,1.59249 -0.762278,2.22109 -0.520648,1.27449 -0.852266,2.19884 -1.206858,3.36399 -1.095442,3.5995 -2.553242,7.54715 -4.173441,11.30143 -0.480675,1.11382 -0.963311,2.34848 -1.072518,2.7437 -0.109208,0.39523 -0.35402,1.10074 -0.544025,1.56783 -0.344333,0.84647 -0.477487,1.26128 -1.27913,3.98489 -0.232651,0.79045 -0.602674,1.93693 -0.82227,2.54773 -0.219595,0.6108 -0.469217,1.37511 -0.554714,1.69848 -0.0855,0.32336 -0.355051,0.99949 -0.599006,1.50249 -0.243954,0.50302 -0.480965,1.06156 -0.526686,1.24121 -0.145042,0.56991 -0.660348,1.94127 -0.895466,2.38307 -0.293403,0.55131 -0.987851,2.71025 -0.874697,2.71931 0.896873,0.0717 6.217354,0.25945 7.235844,0.25535 0.75997,-0.003 1.868382,0.0851 2.463141,0.19589 1.995934,0.37188 2.513666,0.43615 4.685973,0.58168 1.189505,0.0797 3.370405,0.26048 4.846415,0.40176 1.82483,0.17465 3.78587,0.26099 6.12782,0.26978 1.89428,0.007 3.74153,0.0512 4.10498,0.098 0.44403,0.0571 0.67254,0.0374 0.69649,-0.0601 0.0196,-0.0799 -0.12145,-0.756 -0.31346,-1.5025 z m -30.900035,-2.14736 c 0.140655,-0.45961 0.405126,-1.17538 0.587715,-1.59061 0.182594,-0.41523 0.454059,-1.10772 0.603256,-1.53888 0.149202,-0.43116 0.48121,-1.25811 0.737794,-1.83767 0.256584,-0.57955 0.58198,-1.46146 0.723108,-1.95979 0.141123,-0.49831 0.341432,-1.0824 0.44513,-1.29798 0.103699,-0.21558 0.389083,-1.09748 0.634191,-1.95979 0.899375,-3.16406 2.289056,-7.11845 3.328833,-9.4723 0.460262,-1.04195 1.281677,-3.09973 1.825362,-4.57282 0.9693,-2.62632 1.273839,-3.52384 2.123842,-6.25931 0.232402,-0.74791 0.694875,-2.04138 1.02772,-2.87436 0.332839,-0.83297 0.760699,-2.06651 0.950799,-2.74118 0.190096,-0.67468 0.395739,-1.29233 0.456979,-1.37257 0.06121,-0.0803 0.446347,-0.96867 0.855808,-1.9743 0.409453,-1.00563 0.903522,-2.17145 1.097915,-2.59073 0.275237,-0.59362 1.060643,-2.6553 1.060643,-2.78416 0,-0.0136 -0.25683,-0.0889 -0.570732,-0.16734 -0.313898,-0.0784 -0.86811,-0.2353 -1.231572,-0.3487 -0.363463,-0.11339 -0.853623,-0.25777 -1.089248,-0.32082 -0.235625,-0.0631 -0.577527,-0.19879 -0.759788,-0.30161 -0.368266,-0.20776 -0.208874,-0.32864 -2.225376,1.68778 -0.435485,0.43547 -1.1162,1.08183 -1.512707,1.43636 -1.540737,1.37767 -3.543174,3.34946 -4.27824,4.21277 -0.423369,0.49724 -1.472299,1.54168 -2.330967,2.32098 -0.858663,0.7793 -2.210031,2.09915 -3.003041,2.93299 -0.793011,0.83384 -2.198719,2.2476 -3.123798,3.14171 -0.925078,0.89409 -2.384935,2.36122 -3.244134,3.26029 -2.231552,2.33508 -6.123655,6.13412 -9.481402,9.25469 -1.592006,1.47955 -3.544083,3.36812 -4.337942,4.19681 -0.793864,0.82866 -1.929311,1.98467 -2.523216,2.56886 -1.027992,1.01119 -1.070266,1.07392 -0.88052,1.30653 0.109625,0.13439 0.21776,0.3891 0.240308,0.566 0.0441,0.34584 0.711967,0.70499 3.04482,1.63731 0.594759,0.2377 1.480815,0.61439 1.969015,0.8371 0.488199,0.22269 0.940087,0.40492 1.00419,0.40492 0.0641,0 0.66494,0.26311 1.335196,0.58469 0.670253,0.32156 2.354092,1.08047 3.741863,1.68644 1.387765,0.60597 3.123719,1.3721 3.857667,1.70252 2.917039,1.31324 8.355533,3.33988 8.541373,3.18293 0.07888,-0.0667 0.2585,-0.49716 0.399156,-0.95676 z m 60.555295,-8.29856 c 0.56171,-0.36374 1.40118,-0.88969 1.86547,-1.16875 0.46431,-0.27907 1.07804,-0.6916 1.36387,-0.91676 0.60403,-0.47578 3.14746,-2.32493 4.881,-3.54862 0.66084,-0.46648 1.85035,-1.24915 2.64336,-1.73927 0.79301,-0.49012 1.73922,-1.10734 2.10269,-1.3716 0.36346,-0.26428 0.97971,-0.63777 1.36946,-0.82999 0.38975,-0.19222 0.96608,-0.55063 1.28075,-0.79645 0.31467,-0.24582 0.85787,-0.58062 1.20712,-0.74398 0.34924,-0.16338 0.85427,-0.47836 1.1223,-0.69999 1.02134,-0.84451 1.6181,-1.23797 2.38209,-1.57055 0.8506,-0.37026 1.08266,-0.65011 0.65237,-0.78666 -0.14533,-0.0461 -0.59913,-0.22608 -1.00847,-0.39988 -0.70764,-0.30049 -1.17101,-0.57042 -3.09552,-1.8032 -0.45976,-0.29452 -0.94638,-0.60543 -1.08138,-0.69092 -0.64978,-0.4115 -3.19753,-1.79238 -3.72987,-2.0216 -0.33043,-0.14227 -1.03332,-0.48433 -1.562,-0.76014 -0.52867,-0.27582 -1.52894,-0.77663 -2.22283,-1.11292 -0.69389,-0.33629 -1.36497,-0.67141 -1.49131,-0.74471 -0.12635,-0.0733 -0.50483,-0.23774 -0.84107,-0.36541 -0.33625,-0.12767 -1.67632,-0.79736 -2.97792,-1.48819 -1.3016,-0.69083 -2.43803,-1.25605 -2.52536,-1.25605 -0.0873,0 -0.35314,-0.14359 -0.59065,-0.31908 -0.23748,-0.17549 -0.80424,-0.44341 -1.25945,-0.59537 -0.4552,-0.15196 -1.01688,-0.36777 -1.24817,-0.47957 -2.53525,-1.22544 -6.10791,-2.87579 -6.73702,-3.11207 -0.4342,-0.16308 -2.54289,-1.2693 -4.68598,-2.45826 -5.33088,-2.95749 -9.43329,-4.79661 -12.29707,-5.5128 -1.01239,-0.25319 -3.38381,-1.23919 -5.082,-2.113 -0.35728,-0.18385 -0.41068,-0.17954 -0.72092,0.0581 -0.18429,0.14113 -0.79466,0.47448 -1.35637,0.74077 -0.56172,0.26628 -1.06121,0.52612 -1.10998,0.57742 -0.0488,0.0513 0.2331,0.40127 0.6264,0.77771 0.3933,0.37645 1.04875,1.21418 1.45656,1.86163 0.40781,0.64746 0.82883,1.2287 0.93559,1.29166 0.10676,0.0629 0.58567,0.54585 1.06424,1.07308 0.62387,0.6873 0.99049,1.23212 1.29543,1.92507 0.29699,0.67488 0.69015,1.26614 1.30316,1.95978 0.48281,0.54633 1.1666,1.4535 1.51952,2.01594 0.35292,0.56244 0.90823,1.26796 1.234,1.56783 0.32577,0.29986 1.19476,1.19317 1.93108,1.98511 0.73633,0.79193 1.62399,1.67383 1.97259,1.95978 0.34859,0.28594 0.8808,0.83097 1.18266,1.21115 0.30186,0.3802 0.87534,0.98673 1.27441,1.34785 0.39905,0.36112 1.11863,1.16713 1.59906,1.79113 0.48042,0.62401 1.48343,1.72249 2.2289,2.44108 1.97647,1.9052 5.12355,5.32699 6.00815,6.53262 0.42181,0.57487 1.09213,1.43422 1.48961,1.90966 0.39747,0.47546 0.90032,1.10599 1.11739,1.40118 0.2171,0.2952 0.75779,0.81549 1.20154,1.1562 1.24861,0.95867 1.81785,1.50294 2.08333,1.99194 0.29359,0.54079 1.91834,2.47347 2.08778,2.48343 0.0661,0.004 0.57974,-0.29053 1.14146,-0.65429 z m -82.184749,-6.53268 c 0.95822,-0.97271 2.877667,-2.82317 4.265437,-4.11212 3.098779,-2.87813 6.610187,-6.31065 9.552044,-9.33743 1.222629,-1.25791 2.736618,-2.78053 3.364419,-3.38358 0.627801,-0.60306 1.925455,-1.90129 2.883675,-2.88498 0.95822,-0.9837 2.309942,-2.30446 3.003827,-2.93505 0.693885,-0.63059 1.829331,-1.77602 2.523215,-2.54541 0.693886,-0.76939 2.180781,-2.25378 3.304212,-3.29864 1.123433,-1.04487 2.260496,-2.12849 2.526807,-2.40804 0.266315,-0.27955 0.691864,-0.67835 0.945668,-0.88623 0.422311,-0.34589 0.442393,-0.38951 0.236716,-0.51415 -0.123612,-0.0749 -0.298426,-0.21592 -0.388474,-0.31335 -0.137807,-0.14912 -0.204378,-0.1483 -0.420535,0.005 -0.141246,0.1003 -1.473363,0.54878 -2.960258,0.99661 -1.486896,0.44783 -3.02786,0.95017 -3.424362,1.11632 -0.396508,0.16615 -1.220132,0.45397 -1.830281,0.63962 -0.610149,0.18564 -1.471214,0.51593 -1.913475,0.73399 -1.414163,0.69724 -8.575573,3.20399 -14.395816,5.03905 -3.402246,1.07268 -6.599443,2.16959 -8.050263,2.76189 -1.323638,0.54039 -3.515027,1.37933 -4.869754,1.8643 -1.354726,0.48498 -3.814861,1.49925 -5.466967,2.25395 -1.652106,0.7547 -3.382311,1.5054 -3.8449,1.6682 -1.707187,0.60085 -6.890682,2.86282 -8.213349,3.58414 l -1.364622,0.74421 0.516937,0.48182 c 1.284923,1.19764 4.073546,3.3386 5.576592,4.28141 0.330421,0.20725 1.011465,0.7306 1.51343,1.16297 1.493717,1.28664 2.987388,2.41369 4.851204,3.6605 0.966784,0.64672 2.011898,1.39613 2.322474,1.66534 0.568718,0.49297 2.164508,1.6648 3.388283,2.48811 1.689227,1.13645 1.999102,1.34258 2.201695,1.46459 0.18129,0.1092 0.39827,-0.0628 1.320569,-1.04702 0.606998,-0.64771 1.887632,-1.97351 2.845852,-2.94623 z M 105.7354,153.25275 c 0.79027,-0.2461 1.7883,-0.58574 2.21785,-0.75475 0.68742,-0.27047 0.77878,-0.346 0.76259,-0.63042 -0.0101,-0.17772 -0.0527,-1.05806 -0.0948,-1.95628 -0.0736,-1.57438 -0.24119,-3.10723 -0.35299,-3.22883 -0.0731,-0.0795 -4.58683,3.60394 -5.15101,4.20357 -0.38831,0.41272 -0.45058,0.55991 -0.45058,1.06526 0,0.5087 0.0597,0.6473 0.45058,1.04638 0.43268,0.44174 0.79007,0.67663 1.05633,0.69425 0.0688,0.004 0.77172,-0.19307 1.56198,-0.43918 z m -5.07336,-0.23846 c -0.054,-0.16168 -0.0906,-0.63324 -0.0814,-1.04791 0.0139,-0.62278 0.0855,-0.86142 0.41167,-1.37184 0.41688,-0.65241 2.02072,-2.20055 3.39685,-3.27889 l 0.82152,-0.64374 -1.50241,-0.008 c -0.82631,-0.004 -1.6344,-0.0443 -1.79574,-0.0883 -0.27317,-0.0746 -0.32093,-0.005 -0.69448,1.00734 -0.22064,0.59807 -0.59075,1.44015 -0.82248,1.87131 -0.23174,0.43115 -0.592096,1.28366 -0.800796,1.89446 -0.208708,0.6108 -0.418624,1.21018 -0.466475,1.33197 -0.07038,0.17912 0.024,0.25849 0.494027,0.41551 0.319572,0.10676 0.706334,0.1982 0.859474,0.2032 0.23879,0.008 0.26446,-0.0328 0.18023,-0.28486 z m 5.18853,-8.56506 c 0.3965,-0.13858 1.08588,-0.41301 1.53195,-0.60982 l 0.81103,-0.35787 v -3.64325 -3.64325 l -0.78805,0.32254 c -0.97877,0.4006 -0.91171,0.35755 -1.87397,1.20307 l -0.79965,0.70263 -0.92583,2.70634 c -0.5092,1.48849 -1.00094,2.8651 -1.09276,3.05915 -0.0918,0.19404 -0.16694,0.42284 -0.16694,0.50844 0,0.24127 2.42514,0.0593 3.30422,-0.24798 z m -7.899283,-7.01381 c 0.992861,-0.16499 4.415343,-1.11908 4.525733,-1.26165 0.0901,-0.11636 2.02847,-4.9151 2.28669,-5.66109 0.15943,-0.46059 0.61158,-1.56105 1.00477,-2.44546 1.05808,-2.38001 1.05707,-2.30548 0.0235,-1.73947 -1.79746,0.98428 -6.178423,4.45906 -7.974417,6.32495 -1.240812,1.28909 -3.19875,3.67576 -3.443599,4.19764 -0.224123,0.47771 -0.225662,0.51332 -0.02757,0.6388 0.311499,0.19731 2.269988,0.16812 3.604908,-0.0537 z m 9.337793,-3.53058 0.89551,-0.72013 -0.0723,-1.53362 c -0.0398,-0.8435 -0.0852,-1.55092 -0.10094,-1.57205 -0.0158,-0.0212 -0.22865,0.50801 -0.47304,1.17587 -0.24439,0.66786 -0.51301,1.33188 -0.59693,1.47559 -0.13923,0.23842 -0.67032,1.69154 -0.67032,1.83405 0,0.1339 0.16018,0.0301 1.01797,-0.65971 z M 72.371509,117.00031 c 2.783649,-1.22768 5.994243,-2.73896 7.134652,-3.35841 2.366145,-1.28524 14.415915,-8.29753 14.360976,-8.35727 -0.07649,-0.0832 -2.512317,0.71872 -4.17717,1.37517 -6.134935,2.41897 -13.806497,6.37818 -19.584959,10.10759 -1.530283,0.98764 -4.002024,2.7202 -4.265438,2.98984 -0.176916,0.1811 0.919888,-0.28183 6.531939,-2.75692 z m -8.754771,-12.1612 c 1.379601,-0.33402 1.307422,-0.31014 5.947582,-1.967 2.048609,-0.7315 4.95237,-1.85036 6.452798,-2.48637 5.54178,-2.349066 12.434844,-6.012506 16.953591,-9.010277 2.638849,-1.750634 6.867626,-5.043874 8.066251,-6.281748 l 0.83587,-0.863244 -1.1952,-0.08935 c -1.058221,-0.07912 -1.401711,-0.0436 -2.997474,0.309965 -5.904687,1.308251 -11.407267,3.433411 -16.70129,6.450229 -5.535349,3.154337 -12.914974,8.549892 -16.93162,12.379415 -1.563234,1.4904 -2.031025,1.99874 -1.745455,1.89672 0.09542,-0.0341 0.687146,-0.18633 1.314947,-0.33834 z M 59.560783,94.311667 c 2.229685,-0.467099 4.219321,-1.199386 8.862079,-3.26169 16.37953,-7.275761 24.972451,-11.812716 27.778299,-14.666593 0.848876,-0.863406 0.797574,-0.943937 -0.60129,-0.943937 -2.597437,0 -5.132941,0.596388 -10.11526,2.379258 -3.546776,1.269176 -7.119458,2.813988 -11.174242,4.831691 -4.384349,2.181697 -6.199843,3.26535 -9.137595,5.454157 -2.019081,1.50434 -5.376637,4.355003 -7.143155,6.06475 -0.59256,0.573514 -0.547103,0.577742 1.531164,0.142364 z"
         id="path851" /></g></g></svg>
