<?xml version="1.0" encoding="UTF-8" standalone="no"?>
<!-- Created with Inkscape (http://www.inkscape.org/) -->

<svg
   width="256.82224mm"
   height="213.1908mm"
   viewBox="0 0 256.82224 213.1908"
   version="1.1"
   id="svg5"
   xml:space="preserve"
   inkscape:export-filename="Kothe1.svg"
   inkscape:export-xdpi="100"
   inkscape:export-ydpi="100"
   xmlns:inkscape="http://www.inkscape.org/namespaces/inkscape"
   xmlns:sodipodi="http://sodipodi.sourceforge.net/DTD/sodipodi-0.dtd"
   xmlns="http://www.w3.org/2000/svg"
   xmlns:svg="http://www.w3.org/2000/svg"><sodipodi:namedview
     id="namedview7"
     pagecolor="#ffffff"
     bordercolor="#000000"
     borderopacity="0.25"
     inkscape:showpageshadow="2"
     inkscape:pageopacity="0.0"
     inkscape:pagecheckerboard="0"
     inkscape:deskcolor="#d1d1d1"
     inkscape:document-units="mm"
     showgrid="false" /><defs
     id="defs2" /><g
     inkscape:label="Layer 1"
     inkscape:groupmode="layer"
     id="layer1"
     transform="translate(41.013238,-11.546314)"><g
       id="g573"
       transform="translate(249.74648,-29.014228)"><path
         style="fill:#000000;stroke-width:0.352778"
         d="m -67.098594,253.41712 c 0,-0.94739 2.87147,-5.45267 5.05917,-7.93775 1.1333,-1.28735 2.91475,-3.53127 3.95878,-4.98647 8.47912,-11.81855 14.61271,-18.49405 20.316,-22.11097 1.4854,-0.94201 1.5848,-1.09011 1.13997,-1.69844 -1.17932,-1.61283 -1.95198,-4.61702 -2.08604,-8.11088 -0.20857,-5.43559 1.17362,-13.65293 2.95869,-17.58979 l 1.01969,-2.24889 -0.98541,-0.58209 c -0.54197,-0.32015 -2.38719,-0.98661 -4.10049,-1.48101 -3.14572,-0.90775 -7.48917,-3.04185 -11.05258,-5.43055 -1.06715,-0.71535 -2.84205,-1.81024 -3.94423,-2.4331 -1.10217,-0.62285 -4.47214,-2.91305 -7.4888,-5.08934 -5.25506,-3.79111 -6.9656,-5.01049 -13.31944,-9.4949 -2.97873,-2.10234 -11.99168,-9.79294 -12.75659,-10.88501 -0.85726,-1.22391 -5.44099,-5.84812 -9.94745,-10.03531 -6.544956,-6.08126 -10.445766,-10.02681 -14.412206,-14.5775 -1.91474,-2.19679 -5.36696,-5.66841 -7.6716,-7.71472 -2.30463,-2.0463 -4.19024,-3.79048 -4.19024,-3.87595 0,-0.29441 0.89045,0.37511 3.88056,2.91774 3.54799,3.01702 6.62596,6.16426 11.7895,12.05478 2.40332,2.74169 5.74598,5.97237 9.125156,8.81945 2.93291,2.47107 7.09799,6.4244 9.25572,8.78516 4.46394,4.88396 10.39259,10.16507 15.18109,13.52299 5.43043,3.80807 8.51813,6.02451 12.81687,9.20034 4.07498,3.01051 4.92859,3.58565 11.32888,7.63299 5.40709,3.41926 8.44021,4.93911 11.78268,5.90409 2.90235,0.83792 5.50344,2.06139 5.50344,2.58864 0,0.12171 -0.54356,1.49783 -1.20791,3.05803 -1.628,3.82331 -2.67265,10.11395 -2.67265,16.09407 0,3.92585 0.11515,4.84307 0.86855,6.91868 0.47771,1.31606 1.02441,2.44479 1.21491,2.50829 0.73696,0.24565 -0.17163,1.24049 -3.27167,3.58227 -3.90584,2.95046 -8.88394,7.98475 -11.7887,11.92176 -1.18109,1.60081 -3.08111,4.06143 -4.22227,5.46805 -1.14115,1.40663 -2.57529,3.29357 -3.18697,4.19321 -0.61169,0.89963 -1.87487,2.48713 -2.80707,3.52778 -2.18537,2.43958 -3.33956,4.01488 -4.24676,5.79623 -0.88251,1.73285 -1.84058,2.66361 -1.84058,1.78812 z m -6.87916,-1.43259 c -2.52237,-0.83492 -6.33237,-2.31575 -8.46667,-3.29074 -8.65034,-3.95162 -23.043466,-9.23 -31.926386,-11.70835 -9.03364,-2.5204 -24.28967,-4.87993 -36.59118,-5.65928 -3.1477,-0.19941 -7.75049,-0.59973 -10.22839,-0.88959 -2.4779,-0.28985 -4.74438,-0.54954 -5.03661,-0.57707 -0.29223,-0.0275 0.10367,-0.14713 0.87978,-0.26577 0.77612,-0.11864 2.93497,-0.0253 4.79746,0.20751 1.8625,0.23277 6.03388,0.59771 9.26975,0.81099 14.52392,0.95724 32.43791,3.97138 41.67169,7.01151 8.17232,2.69065 17.480496,6.19083 23.106936,8.68896 4.74173,2.10532 16.23105,6.44341 17.25941,6.51674 0.0823,0.006 -0.16585,-0.34651 -0.55151,-0.78307 -0.38566,-0.43656 -1.88177,-2.61657 -3.32469,-4.84447 -1.44292,-2.22789 -3.48877,-5.32351 -4.54634,-6.87916 -7.21869,-10.61841 -10.16002,-15.45139 -13.52981,-22.23123 -1.35013,-2.71639 -5.31822,-10.33639 -8.817976,-16.93333 -7.48004,-14.09967 -11.20035,-21.75263 -13.29085,-27.34028 -0.8348,-2.23132 -2.84528,-6.88735 -4.46775,-10.34673 -1.62246,-3.45938 -2.94992,-6.35994 -2.94992,-6.44568 0,-0.0857 -1.68589,-3.92284 -3.74643,-8.52688 -3.38511,-7.56368 -10.69405,-25.4308 -11.75833,-28.7439 -0.23373,-0.72761 -0.50138,-1.32292 -0.59478,-1.32292 -0.0934,0 -1.62891,0.51594 -3.41223,1.14653 l -3.2424,1.14652 -7.9375,-0.008 c -5.77832,-0.006 -9.00707,-0.17593 -11.86939,-0.62414 -4.13013,-0.64673 -11.43776,-2.77542 -12.64522,-3.68351 -0.5218,-0.39242 -0.55169,-0.48029 -0.1132,-0.33277 10.25362,3.44972 13.10789,3.91892 23.92225,3.93248 8.46715,0.0106 8.70724,-0.009 11.79655,-0.9672 1.73442,-0.53791 3.20628,-1.03081 3.2708,-1.09533 0.14009,-0.14009 -7.26082,-3.19379 -10.40792,-4.29443 -1.22085,-0.42698 -2.30478,-0.86136 -2.40872,-0.9653 -0.4568,-0.45679 2.8393,0.563 6.56581,2.03144 2.22971,0.87861 4.22248,1.59748 4.42838,1.59748 0.61013,0 6.271,2.82669 6.06781,3.02989 -0.10255,0.10255 -0.7836,-0.0631 -1.51346,-0.36802 -0.72986,-0.30495 -1.3762,-0.50528 -1.43631,-0.44518 -0.47062,0.47063 8.25423,22.33534 12.61021,31.6015 0.94519,2.01063 1.71852,3.72149 1.71852,3.80191 0,0.0804 1.57363,3.51535 3.49695,7.63319 1.92332,4.11784 4.31758,9.55074 5.32056,12.0731 1.78189,4.48117 4.4024,9.75617 14.283076,28.75139 2.67456,5.14173 6.08638,11.72986 7.58182,14.64027 3.02041,5.87831 5.46238,9.92786 11.80667,19.57917 2.35957,3.58951 5.46121,8.35201 6.89255,10.58333 1.43133,2.23132 2.97323,4.46483 3.42645,4.96335 0.84538,0.92989 0.77092,1.40314 -0.21479,1.3651 -0.30721,-0.0119 -2.62231,-0.70467 -5.14467,-1.53959 z m 8.66785,-6.64094 c 0.0136,-0.24253 0.15534,-0.75847 0.31491,-1.14653 0.26632,-0.64769 0.31078,-0.65492 0.54211,-0.0882 0.1386,0.33955 0.16063,0.85548 0.0489,1.14653 -0.24538,0.63947 -0.94077,0.70716 -0.90596,0.0882 z m 3.64568,-5.96353 c -0.15595,-0.25235 -0.0968,-0.31153 0.15557,-0.15557 0.22401,0.13844 0.40729,0.0742 0.40729,-0.14271 0,-0.21693 0.16134,-0.2947 0.35853,-0.17283 0.39453,0.24383 0.13552,0.87839 -0.35853,0.87839 -0.17113,0 -0.42441,-0.18328 -0.56286,-0.40728 z m -29.95873,-0.87686 c -1.80014,-1.19346 -2.43448,-1.82324 -1.02873,-1.02132 1.23748,0.70593 2.88837,1.93315 2.61623,1.94484 -0.10048,0.004 -0.81485,-0.41127 -1.5875,-0.92352 z m -5.19717,-3.15097 c -1.31884,-0.71548 -1.23856,-1.01348 0.0882,-0.32739 0.58208,0.30101 1.05833,0.62258 1.05833,0.71462 0,0.22701 -0.0379,0.21421 -1.14653,-0.38723 z m 40.48126,-1.91489 c 0.11991,-0.19403 0.28803,-0.35278 0.3736,-0.35278 0.0856,0 0.15556,0.15875 0.15556,0.35278 0,0.19403 -0.16812,0.35278 -0.3736,0.35278 -0.20547,0 -0.27548,-0.15875 -0.15556,-0.35278 z m -45.176326,-0.90141 c -0.65759,-0.52683 -0.65326,-0.53334 0.10896,-0.16397 0.43656,0.21156 0.79375,0.45844 0.79375,0.54862 0,0.26996 -0.18295,0.192 -0.90271,-0.38465 z m -5.44729,-3.42212 c -2.42535,-1.56736 -5.20347,-3.29663 -6.17361,-3.84283 -1.80523,-1.01636 -1.66325,-1.42801 0.16623,-0.48195 1.36956,0.70823 10.59349,6.86696 10.59349,7.07318 0,0.22835 0.27726,0.39451 -4.58611,-2.7484 z m -61.9125,-0.29355 c -4.24173,-0.48339 -11.41888,-1.0628 -17.10973,-1.38127 -3.00743,-0.1683 -7.8187,-0.70989 -10.6917,-1.20354 -5.30933,-0.91227 -16.10549,-2.09642 -22.82219,-2.5032 -2.0373,-0.12338 -5.68855,-0.4658 -8.11389,-0.76093 -2.42535,-0.29512 -6.63223,-0.65592 -9.34861,-0.80177 l -4.93889,-0.26518 4.77303,-0.0543 c 2.62517,-0.0299 6.67329,0.17232 8.99583,0.44935 2.32255,0.27704 5.88968,0.60531 7.92697,0.72951 7.93255,0.48355 19.11459,1.63376 24.16528,2.48568 2.91042,0.49091 8.06979,1.04711 11.46528,1.23601 3.39549,0.18889 6.64986,0.42375 7.23194,0.52192 0.58209,0.0982 3.12209,0.32863 5.64445,0.51214 2.52236,0.18352 5.22111,0.56677 5.99723,0.85167 1.33313,0.48937 1.35262,0.51654 0.35277,0.49169 -0.58208,-0.0145 -2.16958,-0.15295 -3.52777,-0.30773 z m 115.181946,0.0518 c 0,-0.18258 0.15875,-0.43007 0.35278,-0.54999 0.19403,-0.11991 0.35278,0.0295 0.35278,0.33196 0,0.30249 -0.15875,0.54999 -0.35278,0.54999 -0.19403,0 -0.35278,-0.14938 -0.35278,-0.33196 z m 3.76296,-3.43101 c -0.40592,-0.40591 -0.2569,-0.82314 0.29398,-0.82314 0.29105,0 0.52917,0.23812 0.52917,0.52916 0,0.55089 -0.41723,0.6999 -0.82315,0.29398 z m -52.325516,-3.59978 c -2.88771,-1.9152 -5.48529,-3.76548 -5.77239,-4.11172 -0.2871,-0.34624 2.13706,1.14441 5.38703,3.31257 5.220276,3.48261 6.297176,4.28134 5.772386,4.28134 -0.0752,0 -2.49932,-1.56698 -5.387026,-3.48219 z m 5.259076,2.3888 c -0.82461,-0.58406 -1.4993,-1.14023 -1.4993,-1.23594 0,-0.0957 0.71437,0.3175 1.5875,0.91822 0.87312,0.60073 1.5875,1.16398 1.5875,1.25167 0,0.24282 -0.0669,0.20556 -1.6757,-0.93395 z m -193.763206,-0.38602 c 0,-0.77941 5.99165,-5.57604 12.91439,-10.33865 1.97422,-1.3582 5.15455,-3.67531 7.06741,-5.14915 1.91286,-1.47384 3.95417,-2.93035 4.53626,-3.23669 0.58208,-0.30635 4.87704,-4.33923 9.54436,-8.96196 8.96612,-8.88048 19.25662,-18.7031 21.3237,-20.35415 3.25881,-2.60295 34.12047,-33.2631 37.33067,-37.08694 3.7172,-4.42773 5.11974,-6.15976 9.37838,-11.5815 4.30376,-5.47917 9.78896,-11.52544 10.45592,-11.52544 0.85705,0 0.11074,1.17728 -2.61014,4.11742 -1.62137,1.75203 -4.4315,5.15391 -6.24472,7.55974 -1.81322,2.40582 -4.03026,5.16797 -4.92675,6.13811 -0.89649,0.97014 -2.38911,2.79577 -3.31692,4.05695 -2.86842,3.89905 -33.02799,33.5528 -45.5345,44.77082 -0.97014,0.87019 -7.11686,6.73913 -13.65937,13.04208 -6.54252,6.30296 -12.65439,11.92529 -13.58195,12.49406 -0.92755,0.56877 -2.08725,1.40843 -2.5771,1.86592 -0.48985,0.45748 -2.49899,1.90793 -4.46474,3.2232 -3.61849,2.42112 -13.239,10.02019 -12.99481,10.26438 0.073,0.073 1.13603,-0.2641 2.36229,-0.74911 4.40855,-1.74365 6.50804,-1.93582 18.81012,-1.72163 4.81682,0.0839 6.13706,0.19936 5.46806,0.47837 -0.57981,0.24181 -3.6012,0.29061 -8.81945,0.14245 -8.42372,-0.23917 -11.53302,0.0685 -15.65726,1.54922 -0.99288,0.35648 -2.22705,0.74256 -2.7426,0.85796 -0.51556,0.1154 -1.19024,0.30686 -1.49931,0.42546 -0.35005,0.13432 -0.56194,0.0284 -0.56194,-0.28092 z m 106.56675,-2.60694 c 0.0169,-0.41097 0.10052,-0.49456 0.21313,-0.21314 0.10191,0.25466 0.0894,0.55894 -0.0278,0.67616 -0.11722,0.11723 -0.2006,-0.0911 -0.18528,-0.46302 z m 138.046916,7.1e-4 c 0.11777,-0.30708 0.21413,-0.71332 0.21413,-0.90293 0,-0.18961 0.15875,-0.24663 0.35278,-0.12672 0.57496,0.35535 0.40876,1.5875 -0.21413,1.5875 -0.37201,0 -0.4933,-0.19184 -0.35278,-0.55802 z m 4.80024,-3.27951 c 0,-0.44468 1.03558,-1.24188 1.28683,-0.99062 0.36127,0.36126 -0.17788,1.30021 -0.74659,1.30021 -0.29713,0 -0.54024,-0.13932 -0.54024,-0.30959 z m -217.594776,-1.9938 c 0.1027,-0.1027 2.70885,-0.65435 5.79144,-1.2259 3.08259,-0.57155 6.87471,-1.35932 8.42693,-1.7506 1.55223,-0.39129 5.41595,-1.28177 8.58606,-1.97884 3.17011,-0.69708 6.66261,-1.5783 7.76111,-1.95828 1.0985,-0.37998 4.4234,-1.24408 7.38866,-1.92023 2.96526,-0.67615 6.18583,-1.5425 7.15681,-1.92523 0.97099,-0.38273 1.95799,-0.68468 2.19334,-0.67101 1.05045,0.061 -4.23893,1.79297 -8.56792,2.80546 -2.61937,0.61263 -6.19125,1.56096 -7.9375,2.10739 -1.74625,0.54644 -5.00062,1.41707 -7.23194,1.93473 -2.23132,0.51766 -6.02941,1.40943 -8.44019,1.98171 -3.87147,0.91902 -13.87487,2.78752 -14.92357,2.78752 -0.21447,0 -0.30592,-0.084 -0.20323,-0.18672 z m 213.495216,-3.54803 c -4.83561,-2.73112 -11.95091,-8.36302 -21.82961,-17.27856 -3.68652,-3.3271 -7.41715,-6.8314 -8.29027,-7.78733 -5.54269,-6.06834 -8.71681,-9.6462 -11.85717,-13.36535 -4.38004,-5.18731 -13.283456,-16.00312 -14.948246,-18.15901 -0.67422,-0.87312 -3.96911,-4.8904 -7.32197,-8.92729 -3.35286,-4.03689 -6.70249,-8.16439 -7.44362,-9.17222 -7.41245,-10.0799 -10.95248,-15.10489 -9.86509,-14.00326 0.88223,0.89377 7.09921,9.19245 8.99663,12.00907 0.98573,1.46325 3.83379,5.12042 6.32904,8.12706 2.49525,3.00663 5.64806,6.86308 7.00626,8.56989 4.962676,6.23648 10.584236,13.13654 14.069336,17.2691 1.96325,2.32799 4.03708,4.80251 4.60851,5.49893 10.64076,12.96829 30.30705,30.82424 40.23604,36.5322 3.81349,2.1923 3.98435,2.30486 3.49838,2.30484 -0.17786,-1e-5 -1.61256,-0.72814 -3.18822,-1.61807 z m -61.031966,-0.13536 c -1.15335,-0.57633 -2.56777,-1.5559 -3.14315,-2.17681 l -1.04616,-1.12893 1.07511,0.73886 c 0.5913,0.40638 2.25818,1.38371 3.70416,2.17186 3.02372,1.64809 2.55103,1.9646 -0.58996,0.39502 z m 65.837086,-0.70742 c 0,-0.22165 0.15875,-0.30489 0.35278,-0.18497 0.20262,0.12523 0.35277,-0.19624 0.35277,-0.75529 0,-0.76915 0.0908,-0.88248 0.43305,-0.54028 0.31123,0.31124 0.32895,0.59806 0.063,1.0197 -0.45537,0.72191 -1.20159,1.0081 -1.20159,0.46084 z m -215.900016,-1.94886 c 0.48507,-0.27729 1.04069,-0.50416 1.23472,-0.50416 0.19403,0 -0.0441,0.22687 -0.52917,0.50416 -0.48507,0.27729 -1.04069,0.50417 -1.23472,0.50417 -0.19403,0 0.0441,-0.22688 0.52917,-0.50417 z m 3.88055,-1.62374 c 1.26118,-0.58421 3.08681,-1.30424 4.05695,-1.60006 5.48895,-1.67375 9.71606,-3.24167 14.11111,-5.2341 2.71639,-1.23143 6.7187,-3.04607 8.89402,-4.03252 4.75972,-2.15841 9.31577,-3.9896 9.49079,-3.81458 0.0701,0.07 -0.78349,0.5012 -1.89677,0.95811 -1.11328,0.45691 -5.51665,2.40747 -9.78526,4.33457 -10.3439,4.66986 -14.52121,6.36395 -18.71882,7.59135 -1.9284,0.56387 -4.49359,1.4452 -5.70042,1.95851 -2.97735,1.26639 -3.29146,1.15421 -0.4516,-0.16128 z m 211.490296,-0.66931 c -0.25724,-0.41624 0.0764,-1.05834 0.54999,-1.05834 0.18258,0 0.33196,0.3175 0.33196,0.70556 0,0.74403 -0.51325,0.94934 -0.88195,0.35278 z m -219.251406,-0.8442 c 0,-0.0763 0.24637,-0.23319 0.54749,-0.34874 0.31395,-0.12047 0.45555,-0.0613 0.33196,0.13864 -0.20717,0.33521 -0.87945,0.49581 -0.87945,0.2101 z m 1.41111,-0.66129 c 0,-0.23768 4.3835,-3.08063 4.74998,-3.08063 0.59717,0 14.81512,-8.95198 27.17641,-17.11098 9.04417,-5.96954 20.187,-15.05063 35.26686,-28.74146 1.77517,-1.61166 1.89385,-1.67834 0.71648,-0.40258 -1.55876,1.68903 -8.41063,7.90372 -14.44488,13.1016 -5.82904,5.02111 -10.42147,8.67033 -15.67108,12.45249 -6.99628,5.04058 -26.061,17.21276 -33.20766,21.20197 -1.4552,0.81229 -3.08239,1.76448 -3.61597,2.116 -0.53358,0.35151 -0.97014,0.56012 -0.97014,0.46359 z m 218.898636,-2.72785 c 0.11991,-0.19403 0.28803,-0.35278 0.37359,-0.35278 0.0856,0 0.15557,0.15875 0.15557,0.35278 0,0.19403 -0.16812,0.35278 -0.3736,0.35278 -0.20548,0 -0.27548,-0.15875 -0.15556,-0.35278 z m -36.50781,-2.04953 c 0.77441,-0.62707 0.77739,-0.65998 0.16784,-1.85208 -1.05882,-2.07078 -3.42346,-5.26533 -3.74867,-5.06434 -0.17019,0.10519 -0.55814,0.67219 -0.86211,1.26 -0.30397,0.58781 -0.63205,0.98937 -0.72906,0.89235 -0.23217,-0.23217 0.75284,-2.12191 1.37531,-2.63851 0.38944,-0.3232 0.74402,-0.0689 1.75766,1.26042 1.6602,2.17731 3.08308,4.68602 3.08842,5.44525 0.002,0.33273 -0.30282,0.76929 -0.67812,0.97014 -1.05859,0.56654 -1.24182,0.4317 -0.37127,-0.27323 z m -3.27325,-1.85111 c -0.73056,-0.95909 -1.17949,-1.7438 -0.99764,-1.7438 0.3817,0 2.85508,2.80554 2.85508,3.2385 0,0.64122 -0.59547,0.16204 -1.85744,-1.4947 z m 39.95744,0.0201 c 0,-0.19403 0.15875,-0.35278 0.35278,-0.35278 0.19403,0 0.35278,0.15875 0.35278,0.35278 0,0.19403 -0.15875,0.35278 -0.35278,0.35278 -0.19403,0 -0.35278,-0.15875 -0.35278,-0.35278 z m -135.417086,-12.7 c 0,-0.29104 0.13644,-0.84667 0.30319,-1.23472 0.19111,-0.44473 0.30319,-0.50994 0.30319,-0.17639 0,0.29104 -0.13643,0.84666 -0.30319,1.23472 -0.19111,0.44472 -0.30319,0.50993 -0.30319,0.17639 z m 4.0352,-12.43542 c 0.67715,-2.13479 1.51089,-4.2813 1.53388,-3.94905 0.0352,0.50933 -1.40888,4.7428 -1.61788,4.7428 -0.0923,0 -0.0545,-0.35719 0.084,-0.79375 z m 1.96612,-5.90903 c 0,-0.29104 0.21397,-1.08479 0.47549,-1.76388 0.26151,-0.6791 0.47548,-0.9966 0.47548,-0.70556 0,0.29104 -0.21397,1.08479 -0.47548,1.76389 -0.26152,0.6791 -0.47549,0.9966 -0.47549,0.70555 z m 1.38763,-4.58611 c -0.0107,-0.29104 0.13449,-0.76729 0.32258,-1.05833 0.41674,-0.64487 0.41674,-0.0879 0,0.88194 -0.19991,0.46523 -0.30979,0.52531 -0.32258,0.17639 z m 1.07772,-3.175 c 0,-0.29104 0.13644,-0.84666 0.30319,-1.23472 0.19111,-0.44472 0.30319,-0.50993 0.30319,-0.17639 0,0.29104 -0.13643,0.84667 -0.30319,1.23472 -0.19111,0.44473 -0.30319,0.50994 -0.30319,0.17639 z m 1.0366,-3.73356 c 0.0169,-0.41097 0.10052,-0.49456 0.21313,-0.21314 0.10191,0.25466 0.0894,0.55894 -0.0278,0.67616 -0.11723,0.11722 -0.2006,-0.0911 -0.18529,-0.46302 z m 1.39406,-4.20394 c 0,-0.19402 0.15389,-0.5909 0.34198,-0.88194 0.18808,-0.29104 0.34197,-0.37042 0.34197,-0.17639 0,0.19403 -0.15389,0.5909 -0.34197,0.88194 -0.18809,0.29105 -0.34198,0.37042 -0.34198,0.17639 z m 1.09712,-2.99861 c 0,-0.29104 0.13644,-0.84666 0.30319,-1.23472 0.19111,-0.44473 0.30319,-0.50993 0.30319,-0.17639 0,0.29104 -0.13644,0.84667 -0.30319,1.23472 -0.19111,0.44473 -0.30319,0.50994 -0.30319,0.17639 z m 0.68382,-2.67523 c 0.0169,-0.41097 0.10052,-0.49456 0.21313,-0.21314 0.10191,0.25466 0.0894,0.55894 -0.0278,0.67616 -0.11723,0.11723 -0.2006,-0.0911 -0.18529,-0.46302 z m 0.35278,-1.41111 c 0.0169,-0.41097 0.10052,-0.49456 0.21313,-0.21314 0.10191,0.25466 0.0894,0.55894 -0.0278,0.67616 -0.11723,0.11723 -0.20061,-0.0911 -0.18529,-0.46302 z m 0.38062,-1.5581 c 0,-0.48507 0.0801,-0.68351 0.17794,-0.44097 0.0979,0.24253 0.0979,0.63941 0,0.88194 -0.0979,0.24253 -0.17794,0.0441 -0.17794,-0.44097 z m 0.36585,-1.94028 c 0.007,-0.58208 0.0863,-0.7775 0.1757,-0.43426 0.0895,0.34324 0.0836,0.81949 -0.0131,1.05833 -0.0966,0.23885 -0.16981,-0.042 -0.16262,-0.62407 z m 0.36585,-2.29306 c 0,-0.67909 0.0726,-0.9569 0.16134,-0.61736 0.0887,0.33955 0.0887,0.89518 0,1.23473 -0.0887,0.33954 -0.16134,0.0617 -0.16134,-0.61737 z m 0.37183,-2.99861 c 0.003,-0.97014 0.0712,-1.32514 0.15225,-0.7889 0.0811,0.53625 0.0789,1.33 -0.005,1.76389 -0.0837,0.4339 -0.15007,-0.005 -0.14743,-0.97499 z m 0.3576,-3.70416 c 0,-1.06716 0.0661,-1.50372 0.14696,-0.97014 0.0808,0.53357 0.0808,1.4067 0,1.94028 -0.0808,0.53357 -0.14696,0.097 -0.14696,-0.97014 z m 0.36567,-4.93889 c 0,-1.45521 0.0623,-2.05052 0.13838,-1.32292 0.0761,0.72761 0.0761,1.91823 0,2.64584 -0.0761,0.7276 -0.13838,0.13229 -0.13838,-1.32292 z m 0.26202,-3.38079 c 0.0169,-0.41097 0.10052,-0.49456 0.21314,-0.21314 0.1019,0.25466 0.0894,0.55894 -0.0278,0.67616 -0.11722,0.11723 -0.2006,-0.0911 -0.18528,-0.46302 z m 1.88095,-5.21708 c -0.12346,-0.32173 -0.10734,-8.40101 0.0358,-17.95396 0.32973,-22.003036 0.30011,-25.362106 -0.22656,-25.687596 -0.49976,-0.30887 -0.7709,-19.989575 -0.33982,-24.666125 0.15203,-1.649236 0.30099,-2.809779 0.33103,-2.578985 0.0379,0.291153 0.91761,0.39916 2.87335,0.352778 l 2.81873,-0.06685 0.009,-1.411111 c 0.007,-1.041831 0.0984,-1.272631 0.35086,-0.881945 0.19472,0.301294 0.31858,3.3396 0.28765,7.055556 l -0.0543,6.526388 -0.25282,-4.586111 c -0.13906,-2.522361 -0.27092,-4.917549 -0.29305,-5.322641 -0.0373,-0.68389 -0.23873,-0.734316 -2.81781,-0.705555 l -2.7776,0.03097 -0.11471,4.7625 c -0.16568,6.878888 0.0522,16.472861 0.42053,18.520831 0.95963,5.33506 1.04901,7.13123 0.64032,12.86791 -0.48136,6.75688 -0.54212,11.02454 -0.34536,24.257076 0.13301,8.94513 0.0176,10.95332 -0.54511,9.48686 z m 6.55685,-5.95421 c -0.002,-10.39476 -0.29524,-20.400066 -0.70359,-23.983816 -0.27851,-2.44428 -0.28598,-4.63107 -0.0259,-7.58472 0.201,-2.28261 0.32251,-7.18913 0.27003,-10.90336 -0.0525,-3.71423 0.0187,-7.603607 0.1581,-8.643055 0.13943,-1.03945 0.2093,4.446749 0.15526,12.191555 -0.054,7.7448 0.0301,16.15855 0.18691,18.69722 0.53612,8.677586 0.76966,26.311586 0.34846,26.311586 -0.26745,0 -0.38857,-1.8935 -0.38927,-6.08541 z m 19.52719,4.8398 c -0.11398,-0.29703 -0.1203,-0.97471 -0.014,-1.50598 0.19128,-0.95637 0.14428,-0.98319 -4.75399,-2.712 -2.72094,-0.96034 -4.80809,-1.79244 -4.63809,-1.84911 0.35494,-0.11831 10.04331,3.2073 10.64765,3.6549 0.0716,0.053 -0.12683,0.35345 -0.44097,0.66759 -0.691,0.691 -0.75435,1.93188 -0.0986,1.93188 0.2599,0 0.67759,-0.43656 0.9282,-0.97014 0.25061,-0.53358 0.52452,-0.7805 0.60868,-0.54872 0.46439,1.27897 -1.75291,2.59778 -2.23879,1.33158 z m -14.58728,-1.92939 c -0.38991,-0.25198 -0.15782,-0.34197 0.88194,-0.34197 0.77611,0 1.64924,0.15389 1.94028,0.34197 0.38991,0.25198 0.15781,0.34197 -0.88195,0.34197 -0.77611,0 -1.64923,-0.15388 -1.94027,-0.34197 z m -22.54463,-1.22205 c 0.69733,-0.25674 1.76889,-0.72588 2.38125,-1.04254 0.61236,-0.31666 1.11337,-0.48499 1.11337,-0.37407 0,0.30046 -3.62066,1.92959 -4.23333,1.9048 -0.29104,-0.0118 0.0414,-0.23146 0.73871,-0.48819 z m 7.90435,-0.88255 c -0.38806,-0.16279 -1.16414,-0.47467 -1.72462,-0.69306 -0.56049,-0.21839 -0.94909,-0.46706 -0.86356,-0.55259 0.0855,-0.0855 1.09973,0.23265 2.25379,0.70705 1.15405,0.47441 1.86015,0.85627 1.56911,0.84858 -0.29104,-0.008 -0.84667,-0.14718 -1.23472,-0.30998 z m -26.27676,-3.18188 c -0.57836,-0.57836 -0.63321,-0.84773 -0.31487,-1.54641 0.29828,-0.65465 0.82917,-0.93515 2.3467,-1.23992 1.07866,-0.21663 2.54658,-0.39386 3.26203,-0.39386 0.71546,0 3.34804,-0.30556 5.85019,-0.67902 2.50215,-0.37346 5.89875,-0.76461 7.54798,-0.86924 2.72748,-0.17303 2.58394,-0.12925 -1.5875,0.48414 -9.83344,1.44598 -12.06429,1.75821 -13.98347,1.95717 -2.30654,0.2391 -3.54422,0.93106 -2.87662,1.60825 0.33597,0.34079 0.55324,0.32717 1.0279,-0.0644 0.54964,-0.45349 0.56589,-0.42905 0.18724,0.28164 -0.40748,0.76478 -0.37042,0.78031 2.1471,0.90004 l 2.56174,0.12183 -2.73403,0.0701 c -2.31455,0.0593 -2.84148,-0.0374 -3.43439,-0.63026 z m 42.39429,0.1066 c -0.83674,-0.29594 -1.45898,-0.60044 -1.38274,-0.67668 0.16096,-0.16095 3.43326,0.91341 3.43326,1.12721 0,0.22091 -0.40141,0.13271 -2.05052,-0.45053 z m -33.84462,-0.016 c 0.7276,-0.0761 1.91823,-0.0761 2.64583,0 0.72761,0.0761 0.13229,0.13838 -1.32291,0.13838 -1.45521,0 -2.05053,-0.0623 -1.32292,-0.13838 z m 4.85069,-0.12873 c -0.77435,-0.21906 -0.72684,-0.25378 0.38953,-0.28466 0.69931,-0.0193 3.39096,-0.36001 5.98144,-0.75705 3.08191,-0.47237 5.35563,-0.64123 6.57784,-0.48852 2.8935,0.36152 2.30677,0.97858 -0.74428,0.78278 -1.43669,-0.0922 -3.937,0.0473 -5.55626,0.30996 -3.87655,0.62886 -5.57635,0.74071 -6.64827,0.43749 z m 38.10001,-0.32637 c -1.26118,-0.14663 -4.59493,-0.36494 -7.40833,-0.48513 -5.40264,-0.2308 -9.07006,-0.83985 -5.29167,-0.87878 1.06715,-0.011 4.48028,0.21006 7.58472,0.49124 7.08079,0.64134 10.81999,0.66928 11.43882,0.0855 0.37725,-0.35589 0.43629,-0.33888 0.30604,0.0882 -0.28625,0.93854 -2.53237,1.17537 -6.62958,0.69901 z m 6.36279,-2.08623 c -0.20065,-0.37491 -0.68479,-0.78322 -1.07587,-0.90734 -0.39108,-0.12412 -0.63028,-0.35636 -0.53157,-0.51609 0.20919,-0.33848 -0.67026,-0.7328 -1.52101,-0.68196 -0.35962,0.0215 -0.2455,0.14758 0.29344,0.32422 1.08033,0.35409 -2.12724,0.0859 -6.35,-0.53087 l -2.99861,-0.438 4.98831,-0.0411 c 4.54465,-0.0375 5.07084,0.0238 5.91608,0.68866 0.84539,0.66498 2.22846,2.78415 1.81708,2.78415 -0.0952,0 -0.3372,-0.30675 -0.53785,-0.68167 z m -34.23224,-2.86089 c 1.06716,-0.14752 2.73403,-0.26058 3.70417,-0.25124 l 1.76389,0.017 -2.11667,0.26262 c -1.16416,0.14444 -2.83104,0.2575 -3.70416,0.25124 l -1.5875,-0.0114 z m 15.61042,-0.24642 c -1.21267,-0.0689 -2.20486,-0.27642 -2.20486,-0.46119 0,-0.41777 0.72142,-0.39214 4.93889,0.17552 2.67141,0.35955 2.95772,0.447 1.41111,0.431 -1.06715,-0.011 -2.93246,-0.0764 -4.14514,-0.14533 z m -13.84653,-0.94467 c 0,-0.27517 -0.0964,-0.75142 -0.21413,-1.05833 -0.11777,-0.30692 -0.0384,-0.55802 0.17639,-0.55802 0.21479,0 0.39052,0.28575 0.39052,0.635 0,0.34925 0.1905,0.8255 0.42333,1.05833 0.32926,0.32926 0.29007,0.42333 -0.17638,0.42333 -0.32985,0 -0.59973,-0.22514 -0.59973,-0.50031 z m 1.5875,-0.75365 c -1.02772,-0.87172 -1.03282,-0.89101 -0.17639,-0.66694 0.48507,0.12691 1.19504,0.53166 1.5777,0.89944 1.09243,1.04992 -0.12814,0.84741 -1.40131,-0.2325 z m 1.31703,-57.307142 c -0.007,-1.26118 0.11513,-2.68993 0.27047,-3.175 0.24189,-0.755295 0.28306,-0.679306 0.28671,0.529167 0.002,0.776111 -0.11937,2.204861 -0.27048,3.175 l -0.27473,1.763889 -0.012,-2.293056 z m 2.03436,1.504001 c 0.29104,-0.09285 0.7193,-0.32302 0.95167,-0.511496 0.27505,-0.22309 0.6444,-0.213586 1.05833,0.02724 0.54498,0.317058 0.55392,0.371449 0.0626,0.380644 -0.31529,0.0059 -1.02967,0.06961 -1.5875,0.141578 -0.55783,0.07197 -0.77611,0.05489 -0.48507,-0.03796 z m 4.64542,-3.333118 c -0.17285,-2.760752 -1.7617,-4.003224 -4.47178,-3.496926 -1.05899,0.197842 -1.52468,0.185976 -1.30544,-0.03326 0.53502,-0.535022 2.97433,-0.735611 4.02377,-0.330882 1.37407,0.529923 2.11952,1.850144 1.95274,3.45836 -0.0935,0.901077 -0.15971,1.034969 -0.19929,0.402711 z"
         id="path945" /></g></g></svg>
